<?xml version="1.0" encoding="UTF-8" standalone="no"?>
<svg
   xmlns:dc="http://purl.org/dc/elements/1.1/"
   xmlns:cc="http://creativecommons.org/ns#"
   xmlns:rdf="http://www.w3.org/1999/02/22-rdf-syntax-ns#"
   xmlns:svg="http://www.w3.org/2000/svg"
   xmlns="http://www.w3.org/2000/svg"
   xmlns:xlink="http://www.w3.org/1999/xlink"
   xmlns:sodipodi="http://sodipodi.sourceforge.net/DTD/sodipodi-0.dtd"
   xmlns:inkscape="http://www.inkscape.org/namespaces/inkscape"
   inkscape:version="1.0 (4035a4fb49, 2020-05-01)"
   sodipodi:docname="asec_rounded_inv.png"
   viewBox="0 0 707.4812 203.63544"
   height="203.63544"
   width="707.4812"
   id="svg44"
   version="1.1">
  <defs
     id="defs48" />
  <sodipodi:namedview
     inkscape:current-layer="g52"
     inkscape:window-maximized="0"
     inkscape:window-y="47"
     inkscape:window-x="12"
     inkscape:cy="140.19603"
     inkscape:cx="455.61241"
     inkscape:zoom="0.94921877"
     fit-margin-bottom="0"
     fit-margin-right="0"
     fit-margin-left="0"
     fit-margin-top="0"
     showgrid="false"
     id="namedview46"
     inkscape:window-height="1017"
     inkscape:window-width="1892"
     inkscape:pageshadow="2"
     inkscape:pageopacity="0"
     guidetolerance="10"
     gridtolerance="10"
     objecttolerance="10"
     borderopacity="1"
     bordercolor="#000000"
     pagecolor="#000000" />
  <g
     transform="translate(-70.201967,-313.58907)"
     id="g52"
     inkscape:label="Image"
     inkscape:groupmode="layer">
    <g
       id="g128">
      <path
         id="path144"
         d="m 325.99999,516.50871 c -30.97674,-4.73827 -61.25101,-16.26262 -64.71958,-24.63648 -1.81,-4.36972 -1.24372,-6.3055 6.30514,-21.55376 l 4.46292,-9.01486 3.47075,2.27412 c 3.29353,2.158 3.56213,2.14911 5.261,-0.17422 0.98465,-1.3466 2.00367,-3.08855 2.26449,-3.87102 0.30494,-0.91481 4.72476,-0.18136 12.38142,2.05466 6.54896,1.91252 13.70383,3.88604 15.89974,4.3856 5.57003,1.26716 7.44025,3.16669 6.56221,6.66506 -0.58724,2.33979 -0.0713,3.1813 2.34623,3.82663 2.94683,0.78664 5.52219,-1.06731 6.79756,-4.89341 0.99188,-2.97566 4.96812,0.42141 4.96812,4.24446 0,2.37099 0.85009,4.2254 2.169,4.73151 2.50023,0.95944 5.831,-1.35035 5.831,-4.0436 0,-1.33888 2.00047,-1.83675 7.38024,-1.83675 8.46652,0 12.93635,-2.3264 15.26324,-7.94402 2.21636,-5.35076 0.10867,-8.62544 -8.2916,-12.88215 -11.73699,-5.94759 -17.10985,-9.97155 -34.93913,-26.16735 -9.48967,-8.62022 -17.88967,-15.67015 -18.66667,-15.66651 -0.77701,0.004 -3.14666,1.39408 -5.2659,3.08985 l -3.85316,3.08324 3.72337,2.92881 c 6.35032,4.99518 2.55324,4.76431 -5.87796,-0.35737 -18.08507,-10.98609 -23.41788,-21.98757 -22.57448,-46.57069 0.43724,-12.74466 1.02848,-15.9668 4.17524,-22.75398 7.55216,-16.28912 19.84956,-26.6427 39.70385,-33.42793 10.16793,-3.47491 12.91507,-3.83741 29.22296,-3.85615 19.59011,-0.0225 28.96909,1.88543 49.31297,10.03151 13.41919,5.37331 18.68703,9.48729 18.68703,14.59389 0,4.77716 -8.25692,21.78942 -13.0554,26.89886 -4.4552,4.74392 -6.93163,4.62442 -19.80845,-0.95582 -18.95883,-8.21589 -36.2882,-10.87106 -48.35846,-7.40936 -14.68444,4.21144 -15.63758,19.51156 -1.68845,27.10363 3.45623,1.88112 14.67507,5.93696 24.93075,9.01299 32.93674,9.87882 50.74822,19.15986 58.60308,30.53634 6.99082,10.12505 8.00024,14.24445 8.0226,32.74025 0.0204,16.85103 -0.10427,17.61572 -4.23874,26.01412 -7.6373,15.51356 -21.34445,25.93348 -41.0736,31.2234 -7.88093,2.11308 -37.39618,3.79058 -45.33333,2.5765 z m 355.01784,-0.45962 c -36.06766,-6.60345 -66.83474,-35.35265 -78.53311,-73.38244 -2.61288,-8.49412 -3.07535,-12.91136 -3.07106,-29.33333 0.005,-18.42817 0.21334,-19.94054 4.45394,-32.30278 15.79778,-46.05388 58.52174,-72.44363 107.90343,-66.64983 22.33636,2.62065 40.95136,11.64031 55.03828,26.66807 6.80907,7.26382 7.85734,9.07522 7.85734,13.5774 0,5.62181 -2.89754,8.64074 -18,18.75421 -3.66667,2.4554 -6.86667,4.94929 -7.11111,5.54199 -0.79493,1.92741 -3.07557,1.14186 -5.58123,-1.92239 -2.40714,-2.94379 -2.52357,-2.95491 -6.21372,-0.59323 -8.20004,5.24798 -19.63166,10.08362 -25.86456,10.94086 l -6.56272,0.90261 v 10.54155 10.54154 h 26.52212 c 26.49635,0 26.52287,0.003 27.28516,3.0402 0.41968,1.67211 0.41475,4.37211 -0.0107,6 -0.76711,2.93232 -1.02043,2.9598 -27.28546,2.9598 h -26.51116 v 10.57213 10.57214 l 7.45936,1.54856 c 9.14207,1.89789 14.0968,3.98733 21.83942,9.20981 l 5.96545,4.02377 3.38579,-3.2438 3.3858,-3.24378 9.98209,5.39848 c 12.48308,6.75106 18.52767,11.29222 19.92544,14.96953 3.15723,8.30615 -12.49901,25.18932 -32.2372,34.76351 -6.80504,3.30085 -16.27281,6.92558 -21.03948,8.05496 -10.58141,2.50708 -34.38367,3.66472 -42.98215,2.09046 z m 13.64882,-52.15505 v -9.43927 l -4.33334,0.90315 c -5.8393,1.21701 -19.66666,7.39708 -19.66666,8.78991 0,2.21617 15.70638,8.59221 22.33333,9.06626 1.18761,0.0849 1.66667,-2.59393 1.66667,-9.32005 z m 20.66666,7.63116 c 10.20903,-2.72043 15.83838,-5.97679 14.05238,-8.12877 -1.93223,-2.32819 -12.74387,-6.92259 -19.05238,-8.0963 l -5,-0.93025 v 9.48172 c 0,10.5896 -0.24306,10.40308 10,7.6736 z M 683.0015,445.34952 c 3.84916,-0.87031 8.04848,-1.87041 9.33181,-2.22247 1.97234,-0.54106 2.33334,-2.27649 2.33334,-11.21692 v -10.57681 h -26 c -20.63152,0 -26,0.36299 -26,1.758 0,7.27657 7.41873,23.08041 14.29769,30.4578 l 3.30935,3.54913 7.86467,-5.08317 c 4.32557,-2.79575 11.01398,-5.79525 14.86314,-6.66556 z m 11.66515,-46.56566 v -10.54947 l -5.66667,-0.94359 c -7.67641,-1.27825 -15.21627,-4.3251 -21.9069,-8.85257 -3.06546,-2.07436 -6.16436,-3.77157 -6.88644,-3.77157 -3.73906,0 -15.0977,20.0662 -16.95115,29.94593 l -0.88561,4.72073 h 26.14838 26.14839 z m 0,-31.99238 c 0,-10.52432 1.0842,-10.12834 -14.31886,-5.22949 -8.65576,2.75293 -10.87575,4.44339 -8.6968,6.62235 2.04327,2.04326 16.71539,7.74918 20.01566,7.784 2.82457,0.0297 3,-0.5068 3,-9.17686 z m 28.75,4.55948 c 3.98749,-1.9509 7.25,-4.02909 7.25,-4.61817 0,-1.72827 -13.50304,-7.0594 -19.66667,-7.7646 l -5.66667,-0.64833 v 9.01562 9.01563 l 5.41667,-0.72653 c 2.97916,-0.39959 8.67916,-2.32272 12.66667,-4.27362 z M 72.607557,514.12164 c -1.835636,-1.34224 -2.517978,-3.34011 -2.390759,-7 0.185253,-5.32948 56.956492,-172.58933 62.155042,-183.12165 1.62882,-3.3 4.46149,-6.74116 6.29482,-7.64701 4.02075,-1.98667 36.85183,-2.31032 41.84347,-0.4125 1.84272,0.7006 4.32322,2.75852 5.51222,4.57318 2.68278,4.09442 64.64431,183.79342 64.64431,187.47947 0,1.47044 -1.2,3.87352 -2.66667,5.34019 -2.38094,2.38095 -4.44444,2.66667 -19.25898,2.66667 -21.71703,0 -22.06099,-0.26635 -29.40768,-22.77224 -7.46536,-22.86942 -5.68111,-21.89443 -40.06747,-21.89443 H 132.0606 l -3.21054,3.33333 c -1.9445,2.01887 -5.15883,9.37987 -8.1512,18.66667 -3.65449,11.34169 -5.95596,16.28785 -8.8408,19 -3.81821,3.58964 -4.24444,3.66667 -20.290925,3.66667 -11.993253,0 -17.07998,-0.50395 -18.959578,-1.87835 z m 93.345323,-82.86141 c 3.35445,-3.10882 3.87574,-3.22531 5.96634,-1.33334 3.66878,3.32019 10.12182,2.6224 13.31733,-1.44005 4.04804,-5.14625 3.45242,-8.33977 -3.28145,-17.59409 l -6.04489,-8.30745 -16.28844,0.37401 -16.28844,0.37401 -5.66667,8.45427 c -6.42141,9.58028 -6.7982,11.74759 -2.90322,16.69925 3.19552,4.06245 9.64856,4.76024 13.31733,1.44005 2.0906,-1.89197 2.61189,-1.77548 5.96635,1.33334 2.02158,1.87353 4.70037,3.40642 5.95288,3.40642 1.2525,0 3.93129,-1.53289 5.95288,-3.40642 z M 176,393.99999 c 0,-1.66667 -2.66667,-2 -16,-2 -13.33334,0 -16,0.33333 -16,2 0,1.66667 2.66666,2 16,2 13.33333,0 16,-0.33333 16,-2 z m -0.005,-11 c -0.009,-4.33463 -5.326,-11.13496 -10.35754,-13.24776 -6.71306,-2.81887 -14.26148,-0.3378 -18.594,6.1116 -5.95052,8.85848 -5.11452,9.46949 12.95688,9.46949 14.3511,0 15.99948,-0.24046 15.99501,-2.33333 z m 273.64266,131.37976 c -1.66593,-0.81388 -3.46593,-3.0323 -4,-4.92978 -1.26621,-4.49884 -1.26907,-183.72475 -0.003,-188.22139 1.7994,-6.39066 3.60435,-6.56192 69.15535,-6.56192 h 61.3312 l 3.3924,3.3924 c 3.2704,3.2704 3.3761,3.89248 2.93938,17.29934 -0.69061,21.20174 2.35939,19.8237 -45.68577,20.64159 C 489.28549,356.8083 492,355.74854 492,373.47723 c 0,12.15144 1.48257,17.68556 5.1806,19.338 1.184,0.52907 16.55273,1.34339 34.15273,1.8096 17.6,0.4662 33.02716,1.32177 34.28257,1.90125 3.79977,1.7539 5.45059,11.4327 3.87281,22.70647 -1.76505,12.61197 -2.11942,12.74886 -33.30309,12.86477 -30.59345,0.11373 -39.82693,1.11813 -42.38032,4.61011 -1.25566,1.71722 -1.8053,6.87516 -1.8053,16.94133 0,13.58803 0.2,14.67244 3.27273,17.74516 l 3.27272,3.27273 h 37.86164 c 23.96288,0 39.39713,0.53528 42.04448,1.45815 5.55122,1.93516 7.31706,7.98737 6.6942,22.94356 -0.36706,8.81368 -1.03572,12.06085 -2.85915,13.88455 -2.21047,2.21082 -6.9126,2.39916 -66,2.64353 -44.40317,0.18364 -64.53488,-0.18387 -66.64894,-1.21669 z m 130.64442,-5.7998 c 0.76432,-1.6775 1.0021,-4.59423 0.52838,-6.48164 -0.7429,-2.96132 -1.582,-3.43166 -6.12196,-3.43166 -6.1624,0 -8.69827,3.21672 -7.3555,9.33035 1.31395,5.98235 10.30488,6.38709 12.94943,0.58295 z m -117.80717,-2.50232 c 0.25175,-4.86332 -0.20276,-6.19495 -2.5417,-7.44671 -1.56655,-0.83839 -4.29239,-1.16189 -6.05742,-0.71891 l -3.2088,0.80544 v -34.91428 c 0,-19.20286 -0.27757,-34.63673 -0.61681,-34.29748 -0.33925,0.33924 -0.68872,18.16818 -0.77659,39.61983 -0.11746,28.66715 0.26596,39.51599 1.44675,40.93873 0.88357,1.06466 3.82092,1.93574 6.52743,1.93574 4.88776,0 4.923,-0.0399 5.22749,-5.92236 z m -1.8707,-86.53377 c 1.33324,-0.97488 2.39577,-3.43362 2.39577,-5.54387 0,-4.73973 -3.46984,-7.3914 -9.1352,-6.98119 -3.45415,0.25011 -4.47676,0.99714 -4.99363,3.64786 -0.35748,1.83333 -0.35377,4.83333 0.008,6.66666 0.52267,2.64694 1.55095,3.3981 4.99363,3.64786 2.38447,0.17298 5.41351,-0.47382 6.73119,-1.43732 z M 460.22799,332.46 c 4.641,-4.19972 2.09732,-12.46001 -3.83659,-12.46001 -4.70695,0 -8.39141,3.57425 -8.39141,8.1404 0,6.05052 7.4196,8.67147 12.22834,4.31961 z m 115.8593,0.82642 c 3.20805,-1.71691 3.44612,-8.22884 0.41177,-11.26319 -3.4764,-3.47641 -10.03569,-2.137 -11.52209,2.35281 -2.39208,7.22548 4.27209,12.57008 11.11032,8.91038 z M 298.33333,453.71165 c -6.20736,-0.94034 -4.03848,-3.46838 8.20926,-9.56865 8.84412,-4.40501 12.63087,-5.63824 15.27501,-4.9746 5.96675,1.49756 3.96955,4.01223 -7.83721,9.86777 -6.24411,3.09676 -11.4941,5.54059 -11.66666,5.43071 -0.17255,-0.10987 -1.96374,-0.44973 -3.9804,-0.75523 z m -17,-6.14592 c 0,-3.09882 5.66849,-7.2013 17.85257,-12.92048 10.49594,-4.92677 12.21281,-5.37076 15,-3.8791 1.73108,0.92645 3.14742,2.04513 3.14742,2.48597 0,1.35872 -30.53041,16.0812 -33.34802,16.0812 -1.45859,0 -2.65197,-0.79541 -2.65197,-1.76759 z"
         style="fill:#000000;fill-opacity:1;stroke-width:1.33333" />
      <path
         id="path142"
         d="m 319.33332,515.32736 c -22.91858,-3.69721 -50.90523,-14.30575 -56.49817,-21.41601 -2.10714,-2.6788 -2.73937,-4.77818 -2.14822,-7.13348 1.53802,-6.12798 11.56562,-25.85922 12.44542,-24.48879 0.4772,0.74332 2.21279,1.77125 3.85686,2.28429 2.3848,0.74419 3.30425,0.24134 4.54734,-2.48696 0.85699,-1.88086 1.91184,-3.4124 2.34414,-3.40341 0.43228,0.009 7.98597,2.02916 16.78597,4.48928 l 16,4.47293 0.66666,4.51072 c 0.54416,3.68184 1.2525,4.51072 3.85468,4.51072 2.58767,0 4.86947,-2.06777 6.28782,-5.69805 0.0784,-0.20059 1.17672,0.0321 2.44076,0.51721 1.53248,0.58807 2.05892,1.79715 1.57997,3.62867 -1.58511,6.06144 5.66061,8.59237 8.26084,2.88551 1.35675,-2.97776 2.31503,-3.33334 8.98324,-3.33334 6.47244,0 7.98247,-0.51797 11.36192,-3.89744 7.23885,-7.23884 4.55696,-12.21008 -10.93531,-20.27004 -7.75148,-4.03277 -15.10121,-9.60374 -26.39021,-20.00336 -8.60564,-7.92765 -17.20041,-15.63613 -19.0995,-17.12995 l -3.45291,-2.71606 -4.17993,3.51719 -4.17994,3.51717 2.7343,2.91052 c 4.45864,4.74602 3.1678,4.92252 -4.26572,0.58327 -9.43943,-5.51016 -15.20291,-11.19233 -19.45239,-19.17796 -3.33764,-6.27208 -3.54761,-7.73371 -3.54761,-24.69471 0,-17.71226 0.0773,-18.18506 4.4138,-26.99373 13.11333,-26.63697 45.93363,-40.76311 82.91953,-35.68929 12.85092,1.76292 30.7803,7.37752 42.57981,13.33389 12.33513,6.22675 13.25944,9.80097 6.17341,23.87196 -5.60821,11.13643 -10.80108,17.50521 -14.27306,17.50521 -1.43887,0 -8.13554,-2.3327 -14.88148,-5.18378 -6.74594,-2.85108 -15.44488,-5.85108 -19.33098,-6.66667 -8.72222,-1.83056 -22.10574,-1.91677 -28.15668,-0.18139 -13.66952,3.92036 -15.85801,19.10172 -3.81001,26.42975 2.40111,1.46044 15.16565,6.08505 28.36565,10.27693 30.37383,9.6457 41.84931,15.05415 51.52667,24.28479 9.75141,9.30126 13.09392,16.98974 14.09347,32.41788 1.40661,21.71116 -3.55851,36.09089 -16.56667,47.97962 -8.11625,7.41779 -17.89701,12.4215 -29.95512,15.32463 -12.42693,2.99193 -36.80541,3.61801 -51.09835,1.31228 z m 359.35289,-0.0401 c -12.31409,-2.22755 -30.98909,-11.28379 -41.69004,-20.21714 -46.76193,-39.03773 -51.28477,-109.89498 -9.6936,-151.86498 17.08993,-17.2456 33.50496,-25.43896 57.31337,-28.60727 29.51157,-3.92726 58.86092,4.51642 78.32036,22.53242 8.73508,8.08714 11.73035,12.82914 11.73035,18.57108 0,4.54822 -2.14107,6.66186 -17.07327,16.85452 l -11.07327,7.55857 -2.50656,-3.05724 c -2.28293,-2.78447 -2.78196,-2.88769 -5.5934,-1.15697 -9.225,5.67892 -17.98952,9.47648 -25.09936,10.87525 l -7.98748,1.57147 v 10.4932 10.49318 l 25,0.21004 c 13.75,0.11547 25.75,0.1822 26.66667,0.14816 1.08324,-0.0403 1.66667,1.93472 1.66667,5.6418 0,3.70708 -0.58343,5.68204 -1.66667,5.6418 -0.91667,-0.034 -12.94093,0.0327 -26.72059,0.14816 l -25.05392,0.21004 0.38726,10.98699 0.38725,10.98697 6.17249,0.87948 c 7.10162,1.01187 16.04131,4.717 23.32816,9.66853 l 5.06088,3.43896 3.4525,-3.3077 3.45249,-3.3077 11.9334,6.80063 c 6.56337,3.74033 13.28341,8.04219 14.93341,9.55965 11.09355,10.20247 -10.5378,32.95262 -41.94518,44.11464 -9.88779,3.51407 -27.03836,6.27154 -37.68651,6.05922 -3.31923,-0.0661 -10.52617,-0.93276 -16.01541,-1.92574 z m 15.98044,-51.43563 v -9.48172 l -4.83791,0.90759 c -5.87076,1.10137 -18.48616,6.55016 -19.69541,8.50676 -1.06924,1.73006 2.85296,3.93568 12.53332,7.04797 12.05436,3.87556 12,3.90717 12,-6.9806 z m 27.33333,5.77761 c 8.12135,-3.12366 9.14329,-4.22592 6.56223,-7.07796 -2.2345,-2.46909 -16.5354,-7.8846 -20.82112,-7.8846 -2.09502,0 -2.40778,1.22762 -2.40778,9.45054 v 9.45053 l 5.66667,-0.94359 c 3.11667,-0.51897 8.06667,-1.86669 11,-2.99492 z M 667.33332,452.6762 c 5.18359,-3.7975 18.33221,-8.67618 23.38334,-8.67618 h 3.94999 v -11.33334 -11.33333 h -26 c -29.69128,0 -27.99759,-0.89022 -23.45056,12.32592 2.96324,8.61284 5.71521,13.33744 11.23529,19.28887 4.15016,4.47446 4.41203,4.46792 10.88194,-0.27194 z m 27.33333,-53.71419 v -10.37135 l -9.20423,-2.37107 c -5.06233,-1.30409 -12.71233,-4.48637 -17,-7.07176 -5.48281,-3.30601 -8.37273,-4.33866 -9.74038,-3.48053 -5.74827,3.60675 -16.05539,24.20564 -16.05539,32.08685 0,1.16272 6.85697,1.5792 26,1.5792 h 26 z m 0,-31.5104 v -9.88175 l -8.06611,1.88169 c -9.62272,2.24483 -16.2941,5.46782 -15.60393,7.53835 0.68744,2.06231 9.097,6.2774 16.6982,8.36956 3.46784,0.95449 6.45517,1.78909 6.6385,1.85467 0.18334,0.0656 0.33334,-4.32756 0.33334,-9.76252 z m 30.33333,3.41529 c 3.11667,-1.6066 5.66667,-3.4428 5.66667,-4.08048 0,-1.53824 -10.12904,-6.21469 -16,-7.38699 -2.56667,-0.5125 -5.71667,-1.22746 -7,-1.5888 -2.07276,-0.58361 -2.33334,0.45638 -2.33334,9.3126 v 9.96959 l 7,-1.65243 c 3.85,-0.90882 9.55,-2.9669 12.66667,-4.57349 z M 72.607557,514.12164 c -1.841574,-1.34659 -2.514075,-3.32827 -2.375523,-7 0.237201,-6.28596 60.581026,-182.22925 64.130096,-186.98285 3.45444,-4.62684 6.23136,-5.18841 26.30453,-5.31957 19.70067,-0.12867 22.83337,0.82168 26.34871,7.99364 3.08988,6.30393 61.95305,177.21943 63.05236,183.07925 0.67269,3.58573 0.24798,5.12549 -2.04668,7.42016 -2.72395,2.72394 -3.91439,2.8696 -20.09171,2.45828 -21.33056,-0.54235 -21.05747,-0.32568 -28.4898,-22.6034 -7.60663,-22.80014 -5.83196,-21.83383 -40.09856,-21.83383 -33.34754,0 -31.69712,-0.92677 -38.78538,21.77952 -3.42637,10.97589 -5.85491,16.39159 -8.56628,19.10296 -3.74933,3.74932 -3.93633,3.78419 -20.298585,3.78419 -12.099561,0 -17.201112,-0.50215 -19.083178,-1.87835 z m 93.593333,-82.86801 c 3.03944,-3.03943 3.65307,-3.19855 5.60607,-1.45367 6.04045,5.39677 16.19303,0.98617 16.19303,-7.03477 0,-1.86924 -2.55,-7.14183 -5.66666,-11.71684 l -5.66667,-8.31823 -16.33609,-0.0317 -16.33609,-0.0317 -5.99724,8.14668 c -6.3033,8.56242 -6.95712,10.95448 -4.48012,16.39087 2.57424,5.64984 12.86472,6.90472 15.93137,1.94276 0.51585,-0.83465 2.23205,-0.012 4.31037,2.06643 4.36591,4.36591 8.10427,4.378 12.44203,0.0403 z M 176,393.99999 v -3.33333 h -16 -16 v 3.33333 3.33333 h 16 16 z m -0.52052,-12.93591 c -1.8826,-9.41302 -12.32866,-14.97348 -21.18106,-11.27472 -4.96958,2.07643 -10.28422,8.89726 -10.29344,13.21063 -0.004,2.0942 1.65184,2.33333 16.16168,2.33333 h 16.16667 z m 272.98481,131.76673 -3.79764,-3.2666 V 415.4858 321.4074 l 3.03704,-3.03704 3.03704,-3.03704 h 63.4141 63.4141 l 2.66196,3.28739 c 2.35045,2.90268 2.60972,4.88468 2.21553,16.93644 -0.28101,8.59136 -1.06402,14.26549 -2.1131,15.31261 -1.33314,1.33064 -1.66667,-1.07562 -1.66667,-12.02409 0,-16.64212 -0.93384,-18.84568 -7.98649,-18.84568 -4.92818,0 -5.27647,0.26899 -6.11148,4.71999 -1.2234,6.52129 2.28925,10.48092 8.41582,9.48672 l 4.34882,-0.70572 v 10.39289 10.39291 l -8.19559,0.8566 c -4.50757,0.47113 -21.94701,0.85661 -38.75432,0.85661 -29.93633,0 -34.72413,0.58087 -37.36301,4.53293 -1.43219,2.14491 -1.23676,24.05779 0.24943,27.96674 1.9471,5.12129 8.44626,6.15133 38.86453,6.15956 16.51652,0.004 29.145,0.59214 31.67469,1.47401 5.21312,1.81729 5.94104,4.42997 5.32884,19.12657 -0.70064,16.81972 1.27493,15.93956 -37.57485,16.74019 -37.88168,0.78066 -38.70116,1.01806 -39.96376,11.57706 -0.42241,3.53262 -0.32472,10.85051 0.21708,16.26199 1.54664,15.44755 -0.32175,14.8272 44.66467,14.82968 33.0711,10e-4 38.06523,0.27845 42.12699,2.33333 5.8185,2.94364 7.19808,7.81506 6.43256,22.71388 -0.41565,8.08952 -1.17926,11.66111 -2.85069,13.33334 -2.08083,2.08182 -7.93383,2.31788 -66.10545,2.66609 l -63.82249,0.38204 z m 129.90568,-1.57309 c 2.0936,-1.46641 2.96335,-3.43279 2.96335,-6.69967 0,-3.81089 -0.64482,-4.87409 -3.66667,-6.04578 -5.83779,-2.26355 -10.3754,0.96248 -10.18125,7.23836 l 0.15209,4.91602 h -52.59136 -52.59136 l 0.85947,-3.91313 c 1.19532,-5.44227 -3.31168,-10.02072 -8.78648,-8.92576 l -3.86111,0.77223 v -39.03227 -39.03226 l 4.54932,0.5311 c 3.78224,0.44156 4.94919,-0.0792 6.9207,-3.08804 2.14137,-3.26814 2.17856,-3.95986 0.38353,-7.13217 -1.58668,-2.80408 -2.98348,-3.51303 -6.92156,-3.51303 h -4.93373 l 8.6e-4,-17.88889 c 4.8e-4,-9.83888 -0.31648,-17.57153 -0.70436,-17.18365 -0.38788,0.38788 -0.72686,31.12942 -0.75332,68.31453 -0.0356,50.01896 0.36094,68.10212 1.52398,69.5035 1.30753,1.57547 11.69874,1.95491 61.75332,2.25496 33.09969,0.1984 60.79775,0.50447 61.55125,0.68015 0.7535,0.17567 2.7035,-0.61463 4.33333,-1.7562 z M 460.04208,333.3108 c 2.65669,-1.42182 3.24901,-4.84485 1.78419,-10.31081 -0.61126,-2.28091 -1.78022,-3 -4.8768,-3 -6.8635,0 -10.74307,5.77453 -8.24798,12.27667 0.87446,2.2788 7.8298,2.91305 11.34059,1.03414 z m 68.29124,-12.86052 c -0.91667,-0.36988 -2.41667,-0.36988 -3.33333,0 -0.91667,0.36988 -0.16667,0.67252 1.66666,0.67252 1.83334,0 2.58334,-0.30264 1.66667,-0.67252 z m 6.66667,0 c -0.91667,-0.36988 -2.41667,-0.36988 -3.33334,0 -0.91666,0.36988 -0.16666,0.67252 1.66667,0.67252 1.83333,0 2.58333,-0.30264 1.66667,-0.67252 z m 22.04469,-0.0952 c -3.45875,-0.27366 -9.45875,-0.2765 -13.33333,-0.007 -3.87459,0.27018 -1.0447,0.49409 6.28863,0.49756 7.33334,0.004 10.50344,-0.21759 7.0447,-0.49126 z M 299.33333,453.7076 c -5.87166,-1.39405 -4.48146,-3.1072 7.33886,-9.04372 8.64676,-4.34267 13.28875,-5.96147 15.50193,-5.406 5.55386,1.39393 3.43355,3.94004 -7.83528,9.40877 -12.88006,6.25066 -11.65031,5.83755 -15.00551,5.04095 z m -17.36943,-5.76601 c -1.51524,-2.45171 2.25133,-5.35864 15.66544,-12.09015 10.66749,-5.3532 13.594,-6.31401 15.7375,-5.16685 1.44823,0.77508 2.63266,1.8381 2.63204,2.3623 -0.002,1.34168 -28.51291,16.28643 -31.07098,16.28643 -1.15712,0 -2.49092,-0.62628 -2.964,-1.39173 z"
         style="fill:#000000;fill-opacity:1;stroke-width:1.33333" />
      <path
         id="path140"
         d="m 323.33332,515.89856 c -22.64189,-3.10967 -53.98145,-14.32243 -59.99025,-21.46348 -1.83869,-2.18516 -3.34308,-4.72055 -3.34308,-5.63417 0,-0.91363 2.67855,-7.1645 5.95232,-13.89083 5.92672,-12.17711 5.96756,-12.22276 9.49583,-10.61517 3.203,1.45938 3.81903,1.26898 6.41076,-1.98136 2.86183,-3.58907 2.87985,-3.59215 9.50417,-1.62624 3.65031,1.08329 10.94998,3.18622 16.22149,4.67317 9.16688,2.58571 9.60268,2.89099 10,7.00485 0.33734,3.4927 1.05894,4.37622 3.83844,4.69971 2.61283,0.30409 3.80412,-0.43808 5.03323,-3.13568 1.35132,-2.96583 1.93621,-3.26352 3.63767,-1.85143 1.1151,0.92544 1.6898,2.56255 1.2771,3.638 -0.41269,1.07547 -0.0665,2.77934 0.76924,3.78639 2.43735,2.93681 6.46467,2.16701 7.85975,-1.50233 1.14365,-3.00803 1.99625,-3.33334 8.73623,-3.33334 6.47732,0 7.98633,-0.51742 11.36633,-3.89744 6.91408,-6.91406 4.50819,-12.49669 -8.10256,-18.80121 -10.23933,-5.11899 -17.42072,-10.61828 -34.32083,-26.28186 -17.30511,-16.03899 -16.69703,-15.77126 -23.58738,-10.38506 -2.52536,1.97408 -2.51447,2.07711 0.56575,5.35586 3.76466,4.0073 2.88802,4.1946 -3.71066,0.79278 -7.94833,-4.0976 -15.4028,-11.2924 -19.65601,-18.97133 -3.8404,-6.93359 -3.95753,-7.67867 -3.95753,-25.17311 0,-17.63534 0.0941,-18.21928 4.32222,-26.80773 6.05491,-12.29927 15.39782,-21.32175 28.74715,-27.76128 14.674,-7.07853 21.38672,-8.49625 40.26396,-8.50364 18.82476,-0.008 35.11969,3.7482 53.36949,12.30035 11.99769,5.6223 14.67128,8.66926 13.40243,15.27408 -1.19324,6.21122 -11.02059,23.1909 -14.88936,25.72582 -3.84611,2.52007 -4.53787,2.35626 -23.88256,-5.65588 -10.22727,-4.23589 -13.89123,-5.06204 -24.80206,-5.59229 -14.96346,-0.72723 -20.96322,0.80013 -25.82097,6.57325 -6.58701,7.82822 -2.89045,17.3615 8.84617,22.81395 3.9106,1.81675 14.61019,5.53596 23.77686,8.26493 40.06722,11.92828 57.2829,23.07332 63.59365,41.16912 3.66597,10.51205 3.24323,34.93765 -0.78271,45.22291 -6.13506,15.67353 -22.47313,28.32484 -43.47418,33.66404 -10.14296,2.57869 -34.52166,3.57413 -46.6701,1.90565 z m 360.66666,0.18153 c -11.60251,-1.67564 -18.59242,-3.94609 -29.40697,-9.55193 -23.69199,-12.281 -42.19985,-34.56535 -50.68063,-61.02184 -17.90278,-55.84934 13.54887,-114.81788 68.75427,-128.90702 12.77042,-3.25918 39.18637,-3.26554 52,-0.012 23.56352,5.98212 50,26.44518 50,38.7023 0,4.35196 -3.71818,8.05039 -17.68583,17.5919 l -10.07296,6.88098 -2.90499,-3.09222 -2.905,-3.09223 -8.3929,5.26233 c -5.13256,3.21811 -12.07919,6.12746 -17.88228,7.48936 l -9.48938,2.22651 v 10.38855 10.38854 l 23.66667,0.2561 c 13.01667,0.14085 25.01667,0.2672 26.66667,0.28077 2.55996,0.0211 3,0.74021 3,4.90279 0,4.6011 -0.28392,4.92502 -5,5.70454 -2.75,0.45455 -14.77427,0.83306 -26.72059,0.84112 l -21.72059,0.0147 0.38726,10.96658 0.38725,10.9666 5.99467,1.01987 c 8.01104,1.36292 15.12786,4.31513 22.30296,9.25172 l 5.92764,4.07832 3.62062,-3.46877 3.62063,-3.46879 11.9334,6.80063 c 15.11733,8.61508 17.93341,11.1992 17.93341,16.45625 0,13.47083 -27.94569,33.8158 -54.93848,39.99623 -10.82138,2.47772 -29.05068,3.49762 -38.39485,2.14813 z m 10.66667,-52.22849 v -9.48172 l -5,0.93025 c -6.29715,1.17159 -17.11894,5.76664 -19.04411,8.08634 -1.76713,2.12926 1.18556,3.95464 12.04411,7.44573 12.05436,3.87556 12,3.90717 12,-6.9806 z m 22.758,7.36807 c 7.79641,-2.27546 13.242,-5.21676 13.242,-7.15235 0,-1.86897 -13.34779,-7.88472 -19.66667,-8.86363 l -5.66667,-0.87786 v 9.50374 c 0,10.91399 0.005,10.91743 12.09134,7.3901 z m -49.45623,-18.53178 c 6.93925,-4.66977 17.85739,-8.6879 23.60689,-8.6879 2.99726,0 3.09138,-0.35507 3.09276,-11.66667 l 0.001,-11.66666 -26.16293,0.38901 -26.16294,0.38901 0.88818,5.55435 c 0.48849,3.05489 2.06997,8.226 3.5144,11.49136 2.70582,6.11696 11.75158,18.84293 13.39377,18.84293 0.50895,0 4.03175,-2.09044 7.82844,-4.64543 z m 26.69823,-53.24409 v -11.22284 l -6.68544,-1.43377 c -8.72987,-1.87223 -14.62842,-4.395 -21.77916,-9.31484 l -5.82739,-4.00935 -3.30616,3.60183 c -5.6783,6.18611 -9.08245,11.89152 -11.78926,19.759 -4.58434,13.3246 -6.25056,12.39625 23.05408,12.84457 14.11666,0.21596 25.81666,0.52892 25.99999,0.69546 0.18334,0.16654 0.33334,-4.74748 0.33334,-10.92006 z m -0.30783,-41.52942 c -0.82401,-0.82402 -12.15677,2.21134 -18.59177,4.97961 -5.3534,2.30297 -6.19849,3.11621 -4.88407,4.7 2.33124,2.80897 8.12539,5.53963 16.09053,7.58309 l 7.02647,1.80266 0.39499,-9.31711 c 0.21724,-5.12441 0.20097,-9.51112 -0.0361,-9.74825 z m 26.51969,15.17816 c 7.21818,-2.65134 10.56723,-5.41994 9.21091,-7.6145 -1.01616,-1.64418 -13.1418,-6.1613 -19.75611,-7.35966 l -5,-0.9059 v 10.0271 10.02708 l 4.33334,-0.82378 c 2.38333,-0.45308 7.42866,-1.96073 11.21186,-3.35034 z M 74.666665,515.0816 C 71.67025,513.86087 70.709602,511.82923 70.68771,506.66665 70.664,501.076 130.8759,324.82759 134.44796,320.03172 c 3.34098,-4.48561 6.23742,-5.07846 25.55204,-5.23009 20.97036,-0.16461 24.76122,1.32793 28.44223,11.19836 12.70544,34.06895 61.13542,177.15733 61.30278,181.12165 0.34654,8.20889 -1.9946,9.11888 -22.19699,8.6278 -16.66167,-0.40501 -17.20024,-0.51108 -20.17513,-3.97323 -1.68108,-1.9564 -5.19958,-10.3564 -7.81888,-18.66666 -2.61931,-8.31026 -5.55656,-16.19254 -6.52723,-17.51619 -2.72173,-3.71145 -10.54284,-4.86309 -33.02678,-4.86309 -22.39007,0 -30.3092,1.15353 -32.9783,4.80374 -0.944,1.291 -3.94912,9.25219 -6.67805,17.69154 -2.72893,8.43933 -6.26927,16.86605 -7.86742,18.72601 -2.78962,3.24664 -3.56306,3.39301 -19.357645,3.66329 -9.048555,0.15484 -17.35192,-0.0851 -18.45192,-0.53325 z m 91.897695,-83.8668 c 2.25626,-1.89853 4.1023,-2.87132 4.1023,-2.16176 0,2.46052 7.2745,4.49011 11.00711,3.07099 7.89789,-3.00279 8.16734,-9.77895 0.83628,-21.03108 l -5.48995,-8.42629 h -16.85397 -16.85399 l -5.65606,8.34072 c -7.64137,11.2683 -7.39582,17.51055 0.8227,20.91478 3.24783,1.34529 4.62635,1.25291 8.09892,-0.54284 3.96412,-2.04992 4.3677,-2.02029 7.65007,0.56163 4.58048,3.603 7.38809,3.43773 12.33659,-0.72615 z M 176,393.99999 v -3.33333 h -16 -16 v 3.33333 3.33333 h 16 16 z m 0,-12.13333 c 0,-4.17858 -7.3223,-11.97779 -12.45475,-13.26595 -1.94988,-0.4894 -5.14063,-0.4894 -7.09051,0 C 151.32229,369.88887 144,377.68808 144,381.86666 v 3.46666 h 16 16 z m 275.08715,132.81658 c -6.51408,-2.68249 -6.4205,-1.22027 -6.4205,-100.31301 v -92.96309 l 3.03704,-3.03691 3.03704,-3.03691 h 63.4141 63.4141 l 2.68824,3.31984 c 2.39152,2.9534 2.63249,4.82614 2.18312,16.96576 -0.30931,8.35563 -1.13871,14.27947 -2.13939,15.28015 -1.29012,1.29012 -1.63425,-1.476 -1.63425,-13.13583 0,-10.97786 -0.47551,-15.1647 -1.85203,-16.30712 -2.00476,-1.6638 -121.01445,-2.31906 -125.26055,-0.68968 -1.22142,0.46871 -2.24838,1.53799 -2.28215,2.3762 -0.0337,0.8382 -0.0653,42.8711 -0.07,93.40642 -0.007,76.07587 0.306,92.19698 1.82001,93.71099 2.61314,2.61314 125.44744,2.78344 128.58648,0.17827 1.72471,-1.43139 1.95884,-4.23196 1.40431,-16.79795 -0.45995,-10.42277 -0.2233,-14.93278 0.76629,-14.60292 4.36532,1.45511 4.70669,29.71391 0.41087,34.01182 -2.08295,2.08396 -7.798,2.30812 -65.23643,2.55876 -34.96153,0.15256 -64.24866,-0.25864 -65.86633,-0.92479 z m 12.36774,-7.35964 c 0.53287,-2.12307 0.0133,-4.60416 -1.42526,-6.79884 -1.86095,-2.84016 -3.07476,-3.36117 -6.81366,-2.92468 l -4.54932,0.53111 v -38.83468 -38.83467 l 4.0526,0.59479 c 2.67554,0.39269 4.94084,-0.20907 6.66667,-1.77091 5.62848,-5.0937 1.09761,-13.48193 -6.66667,-12.34237 l -4.0526,0.59479 v -36.35526 -36.35525 l 4.96935,-0.41381 c 5.8944,-0.49087 8.90971,-4.80488 6.95391,-9.94902 l -1.19059,-3.13148 h 51.88317 51.88317 l -0.71964,4.43463 c -0.98964,6.0984 2.37592,9.43879 8.5074,8.44379 l 4.48936,-0.72852 -0.38806,10.25838 -0.38807,10.25839 -7.33333,0.86813 c -4.03334,0.47748 -21.76865,0.92748 -39.41183,1 -23.74124,0.0976 -32.68357,0.57432 -34.40662,1.83424 -3.30214,2.41458 -4.7851,10.5332 -3.88504,21.26904 1.30448,15.55975 -0.29254,14.91339 38.7798,15.69526 41.39391,0.82832 39.36565,-0.1638 38.70558,18.93266 -0.64907,18.77825 1.82197,17.59273 -38.3532,18.40067 -37.07072,0.74549 -37.63212,0.89234 -39.39812,10.30596 -1.24336,6.62769 0.56647,26.42184 2.68048,29.3165 1.58087,2.16463 5.37807,2.43723 42.40407,3.0442 22.36724,0.36667 40.9396,0.96667 41.27192,1.33334 0.3323,0.36666 1.0255,5.65217 1.54042,11.74556 l 0.93623,11.0789 -4.47372,-0.83928 c -5.83148,-1.09398 -9.65539,2.66414 -8.77995,8.62888 l 0.59479,4.0526 H 515.077 462.61585 Z M 295.35827,452.04036 c -0.43949,-0.71113 4.63228,-4.02076 11.27061,-7.35473 8.75888,-4.39898 12.97968,-5.83338 15.38707,-5.22916 1.82456,0.45793 3.31737,1.36086 3.31737,2.00652 0,0.64564 -4.78668,3.5806 -10.63706,6.52212 -10.29431,5.17588 -17.68724,6.7262 -19.33799,4.05525 z m -13.08914,-3.54901 c -2.17138,-2.17138 2.96208,-6.41823 15.15296,-12.53591 10.8425,-5.44101 13.80001,-6.41868 15.94475,-5.27085 1.44823,0.77508 2.63246,1.8381 2.6316,2.3623 -0.001,1.13472 -29.35577,16.37168 -31.44289,16.3213 -0.79445,-0.0192 -1.82333,-0.41376 -2.28642,-0.87684 z"
         style="fill:#000000;fill-opacity:1;stroke-width:1.33333" />
      <path
         id="path138"
         d="m 325.33332,516.05175 c -22.09963,-2.83859 -55.0075,-13.9849 -61.41042,-20.80048 -4.21536,-4.48706 -3.64535,-9.21064 2.61369,-21.65926 l 5.39054,-10.72122 4.24482,1.5646 c 3.07563,1.13364 4.38432,1.1576 4.7512,0.0871 1.87079,-5.45921 3.32856,-5.71176 14.41018,-2.49646 5.86666,1.70218 13.17962,3.75585 16.25103,4.5637 4.9511,1.30224 5.6315,1.9569 6,5.77291 0.34199,3.54152 1.04499,4.37689 3.96784,4.71496 2.62523,0.30364 3.77951,-0.30527 4.42319,-2.33333 1.33752,-4.21415 4.69127,-3.41836 4.69127,1.11316 0,6.13582 7.03892,7.71081 9.57593,2.14265 1.35928,-2.98328 2.31023,-3.33333 9.05529,-3.33333 6.51682,0 8.0213,-0.50599 11.11932,-3.73963 4.119,-4.29931 4.6205,-9.42881 1.24946,-12.78019 -1.28334,-1.27585 -7.26628,-5.06696 -13.29546,-8.42469 -7.55674,-4.20847 -16.53596,-11.22299 -28.90472,-22.58023 -9.86844,-9.06139 -18.43547,-16.4563 -19.03787,-16.43313 -1.25754,0.0484 -8.42862,6.15315 -8.42862,7.17531 0,0.37327 1.31314,1.90205 2.91808,3.39728 4.69991,4.37864 0.80911,3.13684 -7.98936,-2.54988 -15.73398,-10.16936 -20.96906,-22.02841 -19.99545,-45.2958 0.5172,-12.35972 1.10403,-15.17332 4.74895,-22.76904 5.79392,-12.07409 15.72145,-21.65661 28.98445,-27.97719 14.29598,-6.81285 22.56397,-8.56544 40,-8.47888 17.83421,0.0885 33.0813,3.4789 51.01394,11.34355 13.89131,6.09225 17.13519,9.36687 15.81548,15.96539 -1.24266,6.2133 -11.26448,23.60057 -15.02229,26.06277 -3.76092,2.46425 -4.52369,2.28147 -23.80713,-5.70529 -10.22727,-4.2359 -13.89123,-5.06204 -24.80206,-5.5923 -14.96346,-0.72722 -20.96322,0.80014 -25.82097,6.57326 -5.99297,7.12224 -3.39955,16.0365 6.29712,21.64481 3.11259,1.80024 14.95924,6.0516 26.32591,9.44747 27.99116,8.36253 45.49878,16.93913 54.3518,26.62573 9.45042,10.34028 11.67068,17.40478 11.55221,36.75734 -0.0771,12.58959 -0.63055,16.70442 -3.09307,22.99555 -6.16373,15.74676 -21.52505,27.72971 -42.39234,33.06912 -11.93888,3.05487 -33.08155,4.2812 -45.75194,2.65376 z m 358.66666,0.008 c -20.92896,-2.96383 -36.185,-10.86656 -52.80372,-27.35266 -14.1038,-13.99124 -21.76034,-26.18272 -27.64564,-44.01998 -3.58457,-10.86416 -3.97318,-13.75138 -4.04065,-30.02021 -0.0556,-13.38848 0.53643,-20.2006 2.31056,-26.58954 9.88617,-35.60138 35.61523,-61.75718 69.79716,-70.95485 13.53764,-3.64269 39.57337,-3.98672 52.38229,-0.69213 24.23807,6.23426 50.66667,26.50376 50.66667,38.85894 0,4.3493 -3.71898,8.05096 -17.6482,17.56611 l -10.03534,6.8552 -3.24278,-3.24279 -3.24279,-3.24278 -3.43528,2.7022 c -5.71611,4.49628 -15.95475,9.04948 -24.06228,10.70065 l -7.66667,1.56139 v 11.2388 11.2388 h 26.66667 26.66667 v 4.63848 4.63848 l -26.33334,0.36152 -26.33333,0.36152 -0.38524,11.66666 c -0.38293,11.59669 -0.36565,11.66667 2.8812,11.66667 5.69425,0 18.87989,4.7758 25.20987,9.13093 7.15928,4.92572 8.38226,5.10817 10.29417,1.53573 2.06092,-3.85086 4.88685,-3.34117 15.35449,2.76938 15.22872,8.88984 17.97884,11.40332 17.97884,16.43176 0,12.88498 -26.54349,32.80941 -52.50037,39.40853 -11.39564,2.89716 -30.72483,4.21465 -40.83296,2.78319 z m 12,-52.05976 c 0,-9.02875 -0.1072,-9.33334 -3.28332,-9.33334 -4.32389,0 -17.14964,4.84348 -20.92841,7.90335 l -2.98773,2.41932 4.59973,2.39609 c 6.10462,3.18003 14.40514,5.74858 18.93306,5.85871 3.6593,0.0891 3.66667,0.0704 3.66667,-9.24413 z m 29.18457,4.46424 7.18459,-3.50766 -3.18459,-2.46298 c -4.10276,-3.17314 -16.33221,-7.82694 -20.56792,-7.82694 -3.18213,0 -3.28332,0.29324 -3.28332,9.51456 v 9.51458 l 6.33334,-0.86196 c 3.48333,-0.47408 9.5664,-2.4404 13.5179,-4.3696 z m -57.16834,-15.6854 c 3.80361,-2.50499 10.90598,-5.56876 15.78305,-6.80842 4.87707,-1.23964 9.6418,-2.48065 10.58832,-2.7578 1.26807,-0.3713 1.61893,-3.40405 1.33333,-11.52493 l -0.3876,-11.02102 h -26.66666 -26.66667 l 0.47011,3.9822 c 0.81233,6.88122 5.38821,17.38582 10.96716,25.17673 2.95689,4.12925 5.89077,7.50773 6.51973,7.50773 0.62898,0 4.25563,-2.04952 8.05923,-4.55449 z m 27.70201,-53.63352 0.38491,-10.85469 -9.95092,-2.21387 c -6.634,-1.47592 -12.624,-3.94156 -17.97021,-7.39699 l -8.01928,-5.1831 -4.53823,5.02328 c -5.92313,6.5562 -11.37649,17.86445 -12.46229,25.84218 l -0.86591,6.36215 26.51851,-0.36215 26.51851,-0.36213 z m 0.007,-32.25197 c 0.29256,-7.13967 -0.0451,-9.55602 -1.33334,-9.54419 -5.64552,0.0517 -25.05841,7.29727 -25.05841,9.35255 0,2.63405 20.49615,10.98525 24.66667,10.05049 0.73333,-0.16436 1.50961,-4.60085 1.72508,-9.85885 z m 26.88912,5.32721 c 4.00448,-1.95464 7.49274,-4.26869 7.7517,-5.14235 0.58751,-1.98204 -6.26684,-5.60093 -15.03257,-7.93676 -10.28603,-2.74092 -10,-2.97696 -10,8.2523 v 10.06042 l 5,-0.83986 c 2.75,-0.46192 8.27639,-2.43911 12.28087,-4.39375 z M 73.51453,513.88896 c -2.729125,-1.95092 -3.068716,-3.07877 -2.530515,-8.40447 0.676931,-6.69848 59.608115,-179.8039 62.945675,-184.89766 2.87349,-4.38551 9.77521,-5.90415 26.87135,-5.91273 16.30425,-0.008 22.02462,1.33505 24.99566,5.86942 3.28276,5.01012 64.01723,182.46195 64.04455,187.12313 0.0417,7.1191 -1.46538,7.66667 -21.10127,7.66667 -15.49153,0 -18.14873,-0.32161 -20.54049,-2.48612 -1.55794,-1.40992 -5.10191,-9.55219 -8.18684,-18.80925 -2.99184,-8.97772 -6.1847,-17.34195 -7.09522,-18.58716 -0.91053,-1.24523 -4.03944,-2.81675 -6.95314,-3.49228 -7.25696,-1.68251 -46.80252,-1.59963 -52.96216,0.11106 -5.94439,1.65084 -6.87096,3.25451 -13.54559,23.44411 -2.72274,8.23583 -6.12985,15.95412 -7.6515,17.33333 -3.99017,3.61668 -33.563037,4.42144 -38.29051,1.04202 z m 92.53831,-81.93861 c 2.76813,-2.60054 3.05917,-2.62003 6.82754,-0.45728 5.3029,3.04345 10.497,1.59216 13.82265,-3.8622 1.44118,-2.36365 2.62258,-4.64137 2.62531,-5.0616 0.003,-0.42023 -2.75007,-5.07023 -6.11736,-10.33333 l -6.12233,-9.56928 h -17.05439 -17.05437 l -5.48995,8.42629 c -6.32433,9.70695 -6.8637,14.32116 -2.21721,18.96764 3.79335,3.79336 8.17321,4.1791 12.56037,1.10622 2.90772,-2.03664 3.26296,-1.99668 5.92631,0.66667 3.57641,3.5764 8.56048,3.62379 12.29343,0.1168 z M 176,393.99999 v -3.33333 h -16 -16 v 3.33333 3.33333 h 16 16 z m 0,-12.01959 c 0,-1.95872 -1.89786,-5.42382 -4.56422,-8.33333 -4.13952,-4.517 -5.2036,-4.98041 -11.43578,-4.98041 -6.23219,0 -7.29627,0.46341 -11.43579,4.98041 C 145.89785,376.55658 144,380.02168 144,381.9804 v 3.35292 h 16 16 z m 275.08715,132.67695 c -6.42788,-2.58986 -6.3929,-2.13406 -6.8566,-89.32403 -0.47502,-89.31649 -0.0167,-102.3222 3.77133,-107.0001 l 2.42916,-2.9999 h 63.56895 63.56894 l 2.68824,3.31984 c 2.39152,2.9534 2.63249,4.82614 2.18312,16.96576 -0.32719,8.83864 -1.11591,14.24511 -2.23889,15.34682 -1.42118,1.39425 -1.66136,-0.88032 -1.33224,-12.61612 0.32592,-11.62184 0.007,-14.71178 -1.6953,-16.41384 -1.8475,-1.84751 -9.43012,-2.09236 -63.77994,-2.05952 -40.29985,0.0244 -62.25673,0.51328 -63.33771,1.4104 -1.29672,1.07618 -1.54888,21.34269 -1.16598,93.7099 0.2687,50.78521 0.47832,93.02257 0.46582,93.86077 -0.012,0.83822 0.97862,1.90827 2.20248,2.37791 1.22387,0.46965 30.1173,0.86899 64.2076,0.88744 52.5218,0.0284 62.27875,-0.26283 63.92407,-1.90813 1.49886,-1.49888 1.89449,-5.39143 1.73482,-17.06903 -0.16289,-11.91225 0.13924,-14.78125 1.42155,-13.49895 2.42975,2.42975 3.07828,22.60219 0.93257,29.00727 -1.41736,4.23087 -2.60126,5.49564 -5.78077,6.17557 -6.15805,1.31692 -123.61089,1.15767 -126.91122,-0.17206 z m 12.45341,-8.02688 c 1.08245,-5.41226 -2.43336,-9.29715 -8.41389,-9.29715 h -4.46002 v -38.43575 -38.43573 l 4.0526,0.59479 c 7.6241,1.11899 12.31398,-7.23163 6.84242,-12.18332 -1.34108,-1.21367 -4.34108,-2.20665 -6.66667,-2.20665 h -4.22835 v -36 -36 h 4.63594 c 5.68557,0 9.29697,-4.48019 7.94702,-9.85882 l -0.87205,-3.47452 h 50.81121 50.81121 v 4.08766 c 0,6.86753 2.08483,9.24568 8.10532,9.24568 h 5.34484 l -0.39174,9.66666 -0.39175,9.66667 -8,0.85529 c -4.4,0.4704 -22.13532,0.9204 -39.41182,1 -23.18291,0.1068 -32.02172,0.59068 -33.73996,1.84708 -3.33678,2.43991 -4.89042,10.88239 -3.93776,21.39787 1.39652,15.41487 -0.17248,14.78591 38.83252,15.56643 41.39391,0.82832 39.36565,-0.1638 38.70558,18.93266 -0.64907,18.77829 1.82212,17.59273 -38.35436,18.40067 -29.75188,0.59829 -33.42946,0.91814 -35.8592,3.11874 -3.59121,3.25255 -4.70428,10.71523 -3.54744,23.78398 1.47535,16.66677 -0.9575,15.76394 42.47911,15.76394 20.075,0 38.375,0.375 40.66666,0.83334 l 4.16667,0.83333 v 10.98177 10.98178 l -3.38005,-0.64615 c -4.72302,-0.90285 -8.61995,2.96512 -8.61995,8.55592 v 4.46001 H 514.69999 462.73332 Z M 296.3445,452.24112 c -1.07341,-0.68171 2.73201,-3.30277 10.82297,-7.45457 10.61381,-5.44639 12.90339,-6.17579 15.32216,-4.88131 1.56403,0.83705 2.84369,1.79409 2.84369,2.12677 0,0.33268 -4.78668,3.01158 -10.63706,5.9531 -10.46595,5.26217 -15.08185,6.33265 -18.35176,4.25601 z m -13.33385,-3.78729 c -3.82134,-1.54367 1.81576,-6.28595 14.75734,-12.4148 10.09369,-4.78016 14.16248,-6.10703 15.89867,-5.18474 1.28333,0.68174 2.33333,1.68048 2.33333,2.21944 0,0.81966 -30.05177,16.47243 -31.01469,16.15432 -0.17525,-0.0579 -1.06384,-0.40629 -1.97465,-0.77422 z"
         style="fill:#111111;fill-opacity:1;stroke-width:1.33333" />
      <path
         id="path136"
         d="m 325.56492,515.93645 c -21.9145,-2.73276 -49.25867,-11.64796 -59.89826,-19.52901 -5.98716,-4.43487 -5.77044,-9.6084 0.96356,-23.00165 l 5.29691,-10.535 4.09641,1.54622 c 4.11124,1.55182 5.46053,0.83919 7.05843,-3.72796 0.47573,-1.35978 6.43994,-0.14868 24.65066,5.00562 8.37143,2.36941 9.68255,3.14285 9.37448,5.53 -0.5176,4.01065 1.23275,6.10865 5.0964,6.10865 2.25813,0 3.61085,-0.88483 4.07681,-2.66667 1.10964,-4.24328 4.17152,-3.14233 4.63519,1.66667 0.3478,3.60712 1.03041,4.40385 4.07321,4.75415 2.84584,0.32761 4.00058,-0.3368 5.21402,-3 1.40557,-3.0849 2.29869,-3.42082 9.09514,-3.42082 6.51682,0 8.0213,-0.50598 11.11932,-3.73962 4.22279,-4.40764 4.65102,-9.85882 1.05682,-13.45302 -1.38928,-1.38928 -7.23928,-4.99078 -13,-8.00334 -7.7485,-4.05207 -15.15796,-9.80944 -28.47403,-22.12512 -9.9,-9.15627 -18.47429,-16.65476 -19.05398,-16.66332 -1.97199,-0.0292 -8.94602,5.81209 -8.94602,7.49289 0,0.92052 1.33351,2.60768 2.96335,3.74927 6.33251,4.43547 -0.32603,1.78943 -8.03463,-3.19289 -15.60125,-10.08358 -20.95109,-22.0323 -19.95588,-44.57092 0.79479,-17.99963 3.99992,-26.20623 14.70396,-37.64888 8.85887,-9.47016 23.02518,-17.36359 36.98987,-20.61064 19.41889,-4.51527 47.64409,-0.96176 71.42213,8.99192 14.42052,6.03654 18.48591,9.71562 17.49349,15.83117 -1.08093,6.66096 -11.70202,24.8666 -15.8728,27.20759 -3.26768,1.8341 -4.12905,1.74281 -10.63261,-1.12691 -18.36107,-8.10191 -24.37911,-9.79507 -37.21227,-10.46949 -14.96882,-0.78668 -20.93977,0.72164 -25.82097,6.52262 -4.04663,4.80914 -4.28388,9.6383 -0.75763,15.42158 3.49928,5.73906 9.00922,8.3239 33.39215,15.66514 28.11941,8.4662 45.53295,16.99464 54.31111,26.59935 7.87018,8.61124 10.81256,16.08685 11.85614,30.12262 2.45015,32.95352 -13.14268,54.38798 -45.60516,62.69048 -11.98425,3.06506 -32.4929,4.22319 -45.67532,2.57932 z m 358.69221,0.012 c -21.54704,-2.91397 -37.06211,-11.05358 -54.25715,-28.46473 -13.13534,-13.30043 -19.98845,-24.22532 -25.56046,-40.74727 -16.24215,-48.16066 4.53377,-100.31135 48.8938,-122.73079 16.6159,-8.39764 37.68161,-11.76539 58.23999,-9.31076 22.06211,2.63417 38.20638,10.13153 53.24952,24.72896 14.18898,13.76856 13.45131,18.3906 -4.99582,31.30302 l -12.83964,8.98736 -3.16036,-3.13004 -3.16036,-3.13002 -7.32695,4.64096 c -6.68925,4.23704 -14.69797,7.2692 -24.33972,9.2152 -3.6536,0.73741 -3.66667,0.78034 -3.66667,12.04797 v 11.30793 h 26.66667 26.66667 v 4.66667 4.66667 h -26.66667 -26.66667 v 11.87487 11.87488 l 6.56272,0.90262 c 6.2329,0.85724 17.66452,5.69288 25.86456,10.94085 3.69015,2.36168 3.80658,2.35056 6.21372,-0.59323 3.22048,-3.93844 4.10443,-3.8321 13.95974,1.6793 15.447,8.63886 19.39926,12.12861 19.39926,17.12942 0,12.83204 -26.78918,32.94746 -52.57638,39.47846 -11.78998,2.986 -29.49803,4.14997 -40.4998,2.66212 z m 11.74285,-51.72624 c 0,-5.01112 -0.33616,-9.44726 -0.74701,-9.85813 -1.88226,-1.88225 -23.11035,6.16905 -25.20612,9.56007 -1.48137,2.39692 14.62794,9.13368 22.28646,9.31997 3.65098,0.0888 3.66667,0.0503 3.66667,-9.02191 z m 28.98875,4.4685 c 4.09933,-1.87674 6.8352,-3.89688 6.34709,-4.68666 -1.58104,-2.55817 -13.95556,-8.04864 -20.01075,-8.8786 l -5.99176,-0.82126 v 9.6958 9.6958 l 6.22522,-0.85327 c 3.42385,-0.46929 9.46745,-2.3376 13.4302,-4.15181 z m -57.89565,-15.15144 c 6.12909,-4.1722 14.68358,-7.63254 22.9069,-9.26595 l 5.33333,-1.05936 v -11.27365 -11.27365 l -25.29227,-0.36383 c -13.91075,-0.20011 -26.00592,-0.09 -26.87818,0.24473 -5.02048,1.92655 11.12926,36.78576 17.04226,36.78576 0.72292,0 3.8225,-1.70732 6.88796,-3.79405 z m 28.63357,-54.09017 c 0.41842,-11.22375 -0.29742,-12.72302 -6.09331,-12.76203 -5.06992,-0.0341 -17.37893,-4.93595 -23.26565,-9.26509 l -5.55712,-4.08675 -3.85757,3.66572 c -2.12167,2.01613 -5.40579,6.292 -7.29803,9.50192 -3.68564,6.25217 -8.61713,22.09053 -7.29107,23.4166 0.44104,0.44104 12.53959,0.63959 26.88566,0.44121 l 26.08375,-0.36069 z m 9.8e-4,-32.59075 0.39432,-9.78003 -5.72765,0.94924 c -7.40567,1.22734 -20.05242,6.28007 -20.71824,8.27752 -0.87269,2.6181 18.51519,11.31094 23.65725,10.60707 1.529,-0.20931 2.09287,-2.57696 2.39432,-10.0538 z m 25.84395,6.23648 c 3.43104,-1.47112 7.19444,-3.73133 8.36311,-5.02269 1.9879,-2.19662 1.62885,-2.56708 -5.5716,-5.74871 -4.23304,-1.87043 -10.24644,-3.81112 -13.36311,-4.31264 l -5.66667,-0.91187 v 10.26559 10.26559 l 5,-0.93026 c 2.75,-0.51164 7.80722,-2.13389 11.23827,-3.60501 z M 73.51453,513.88896 c -2.736631,-1.95628 -3.066827,-3.06413 -2.504959,-8.40447 0.639384,-6.0771 57.279039,-173.07295 61.922969,-182.57315 3.20202,-6.55044 8.14164,-8.07756 26.40079,-8.16199 19.16056,-0.0887 23.93486,1.25576 27.20184,7.65955 2.38273,4.67054 55.3452,157.30166 61.28172,176.60615 4.85112,15.77494 2.19481,17.70735 -23.05571,16.77264 -11.12523,-0.41182 -14.41897,-1.00136 -16.59452,-2.97021 -1.51904,-1.37471 -5.10973,-9.64444 -8.15401,-18.77953 -2.99184,-8.97772 -6.1847,-17.34195 -7.09522,-18.58716 -0.91053,-1.24523 -4.03944,-2.81675 -6.95314,-3.49228 -7.25696,-1.68251 -46.80252,-1.59963 -52.96216,0.11106 -5.94439,1.65084 -6.87096,3.25451 -13.54559,23.44411 -2.72274,8.23583 -6.12985,15.95412 -7.6515,17.33333 -3.99017,3.61668 -33.563037,4.42144 -38.29051,1.04202 z m 92.53831,-81.93861 c 2.79885,-2.62939 3.02214,-2.64127 6.97757,-0.37118 5.52812,3.17272 10.781,1.28936 14.22024,-5.09847 l 2.58398,-4.79936 -4.29636,-6.6953 c -8.73027,-13.60496 -8.8185,-13.65272 -25.21977,-13.65272 -16.19916,0 -16.13362,-0.0284 -23.42716,10.17864 -5.90518,8.26415 -6.38658,13.78068 -1.61861,18.54863 3.79335,3.79336 8.17321,4.1791 12.56037,1.10622 2.90772,-2.03664 3.26296,-1.99668 5.92631,0.66667 3.57641,3.5764 8.56048,3.62379 12.29343,0.1168 z m 10.61382,-37.95036 c 0,-2.49636 -1.01474,-2.69079 -15.88909,-3.04424 -16.06461,-0.38175 -19.16335,0.37844 -17.64731,4.3292 0.69894,1.82137 3.1938,2.07647 17.17706,1.75629 15.3456,-0.35137 16.35934,-0.53984 16.35934,-3.04125 z m -0.71392,-11.66667 C 175.84381,375.41888 168.05809,368.0254 160.86817,368.00878 152.5165,367.98946 144,375.32559 144,382.53904 c 0,2.68158 0.64532,2.79428 16,2.79428 15.7177,0 15.99916,-0.0529 15.95274,-3 z m 275.13441,132.32403 c -6.41303,-2.58387 -6.39246,-2.32426 -6.86535,-86.65736 -0.49599,-88.45404 0.0791,-105.09615 3.78949,-109.6784 l 2.41975,-2.98827 h 63.40352 c 59.11905,0 63.56441,0.16108 65.78448,2.38382 1.99464,1.99704 2.38094,4.74469 2.38094,16.93468 0,10.55258 -0.49965,15.0268 -1.81836,16.28286 -1.53176,1.45899 -1.72062,-0.43744 -1.19821,-12.03176 0.50936,-11.30466 0.23868,-14.22186 -1.51497,-16.32793 -2.04004,-2.45 -4.85874,-2.58304 -63.29465,-2.98747 -53.89884,-0.37302 -61.46435,-0.17581 -63.72711,1.66127 -1.41216,1.14649 -2.61337,3.28453 -2.66937,4.7512 -0.57938,15.17663 1.9215,184.23216 2.73746,185.04812 0.59928,0.59928 29.45939,1.1064 64.13358,1.12694 55.81185,0.0331 63.28655,-0.20522 65.15855,-2.07722 1.73158,-1.73158 2.04342,-4.82987 1.72175,-17.1062 -0.29779,-11.36522 -0.0184,-14.62499 1.155,-13.47591 2.25744,2.21067 3.23941,21.45356 1.43389,28.09856 -1.32434,4.87405 -2.1798,5.79601 -6.48818,6.99256 -6.1287,1.70211 -122.32793,1.74848 -126.54221,0.0505 z m 12.5209,-6.63596 c 1.76216,-6.73848 -3.75244,-12.78002 -10.14053,-11.1095 -2.79741,0.73155 -2.80087,0.6854 -2.80087,-37.42306 v -38.15551 h 4.57143 c 9.53389,0 12.30191,-10.02033 3.97747,-14.3986 -1.53144,-0.80546 -4.08144,-1.12532 -5.66667,-0.71077 l -2.88223,0.75372 v -36.18091 -36.1809 l 3.26624,0.81977 c 4.95848,1.24449 10.56358,-4.80652 9.39227,-10.13948 l -0.87039,-3.96283 h 50.7726 50.77261 v 5.17008 c 0,6.27052 2.48635,8.65224 8.78515,8.41544 l 4.66347,-0.17532 -0.39098,9.62824 -0.39097,9.62823 -9.33333,0.83439 c -5.13334,0.4589 -22.72277,0.9089 -39.08765,1 -17.27664,0.0961 -30.81686,0.73426 -32.28806,1.52162 -3.7552,2.00972 -5.58018,10.68079 -4.51758,21.4645 1.55108,15.74104 -0.12294,15.0648 39.2253,15.84616 l 33.57265,0.66666 2.66635,3.29427 c 2.32476,2.87224 2.60844,4.87351 2.21433,15.62123 -0.66093,18.02461 1.66927,16.94625 -38.35781,17.75117 -29.92736,0.60182 -33.41888,0.90854 -35.89766,3.15356 -3.53632,3.20278 -4.75675,11.54485 -3.55898,24.32688 1.49495,15.95334 -0.61674,15.18349 41.69578,15.2009 19.61666,0.008 37.91666,0.38658 40.66666,0.84112 l 5,0.82644 v 10.49222 10.49221 l -3.66667,0.0204 c -2.01666,0.0107 -4.32684,0.46123 -5.13373,1 -2.58991,1.72933 -4.41828,6.46336 -3.64231,9.43069 l 0.75372,2.88223 h -52.03067 c -51.23398,0 -52.0201,-0.0405 -51.33894,-2.64527 z M 296.69161,452.04036 c -0.4395,-0.71113 4.63964,-4.02445 11.28697,-7.36295 9.81114,-4.92745 12.5819,-5.80461 14.7204,-4.66013 1.44889,0.77543 2.63434,1.66053 2.63434,1.96691 0,0.30638 -4.81564,2.98526 -10.70141,5.95309 -10.5348,5.31203 -16.36853,6.64624 -17.9403,4.10308 z m -13.10828,-3.56815 c -2.54415,-2.54416 0.24494,-5.03084 12.59252,-11.22714 9.54081,-4.7878 14.43671,-6.54643 16.66666,-5.98675 1.73661,0.43585 3.14172,1.23104 3.12245,1.76707 -0.0192,0.53602 -6.62942,4.2746 -14.68925,8.30793 -17.10496,8.55975 -16.51113,8.32013 -17.69238,7.13889 z"
         style="fill:#111111;fill-opacity:1;stroke-width:1.33333" />
      <path
         id="path134"
         d="m 330.66666,516.44444 c -22.86136,-1.985 -57.46492,-13.07352 -67,-21.46977 -3.76879,-3.31866 -2.80784,-10.09014 3.09912,-21.8385 4.02592,-8.00716 5.82105,-10.41601 6.93333,-9.30373 2.44908,2.44908 7.16716,1.71443 9.26319,-1.44235 l 1.95423,-2.94324 15.87506,4.6289 c 15.62296,4.55537 15.87507,4.69106 15.87507,8.54426 0,3.05982 0.72838,4.10198 3.33333,4.76928 3.64864,0.93467 6.66667,-0.6736 6.66667,-3.55256 0,-3.97933 3.84213,-1.72172 4.24885,2.49659 0.3478,3.60712 1.03041,4.40385 4.07321,4.75415 2.81212,0.32373 4.00039,-0.33639 5.15088,-2.86143 1.33227,-2.924 2.27603,-3.26692 8.6473,-3.142 6.17389,0.12107 7.70294,-0.38779 11.18245,-3.72136 4.15003,-3.97599 5.06416,-8.27351 2.69967,-12.69163 -0.73204,-1.36782 -6.58204,-5.26066 -13,-8.65073 -8.99003,-4.74869 -15.79886,-9.97368 -29.65754,-22.75872 -9.89368,-9.12722 -18.50105,-16.59494 -19.1275,-16.59494 -2.19491,0 -8.88399,5.53297 -8.88399,7.34852 0,1.00848 1.33351,2.76762 2.96335,3.90921 1.62983,1.14157 2.26831,2.0756 1.41883,2.0756 -0.8495,0 -5.27652,-2.55393 -9.83786,-5.6754 -15.51564,-10.61788 -20.76777,-22.9068 -19.57116,-45.79263 0.52703,-10.07977 1.37644,-13.74442 5.01596,-21.64045 11.94895,-25.92357 42.07128,-39.587 79.63237,-36.12108 18.29907,1.68853 47.02608,11.69373 53.48703,18.62876 4.07567,4.37471 3.62915,7.00845 -3.49044,20.58788 -8.28671,15.80547 -10.19923,16.87287 -21.6538,12.0852 -20.28051,-8.47663 -23.01808,-9.19121 -37.46399,-9.77921 -11.55242,-0.47024 -15.0691,-0.14827 -19.05873,1.74494 -8.47773,4.02295 -11.38111,14.28911 -5.98219,21.15271 3.91958,4.98293 10.10407,7.82453 30.64583,14.08087 51.76775,15.76672 66.05755,27.46888 68.64848,56.21742 2.94541,32.68175 -13.29265,55.67797 -44.98765,63.71115 -10.05594,2.5487 -30.51268,4.16352 -41.09936,3.24429 z m 355.33332,-0.67047 c -20.97484,-1.75536 -37.92278,-10.36258 -56,-28.44032 -9.47212,-9.47238 -13.31598,-14.52821 -18.24708,-24.00033 -9.56125,-18.3662 -12.31238,-29.77039 -12.22278,-50.66666 0.0648,-15.12164 0.54038,-18.77944 3.72696,-28.66667 10.95481,-33.99044 35.85137,-58.27179 68.55153,-66.85757 14.46632,-3.79828 39.55737,-3.76244 54.0937,0.0773 16.73495,4.42047 34.24458,15.31756 43.57099,27.11635 8.81121,11.14704 7.47675,14.27956 -11.89048,27.91158 l -10.60085,7.46164 -3.4404,-3.4404 c -3.14995,-3.14996 -3.64166,-3.26586 -5.82432,-1.37302 -5.34842,4.63824 -15.31339,9.32505 -23.27151,10.94526 l -8.44576,1.7195 -0.38524,11.55302 -0.38525,11.55304 h 26.71858 26.71858 v 4.66667 4.66667 h -26.66667 -26.66667 v 11.73322 11.73324 l 7.79271,1.60956 c 7.31828,1.51156 13.80455,4.32641 23.79117,10.32468 l 4.25056,2.553 3.38655,-3.18149 3.38653,-3.1815 6.50706,3.37598 c 26.47693,13.73672 28.60933,19.36581 13.17657,34.78337 -19.05929,19.04052 -49.41703,28.71932 -81.62448,26.02392 z m 9.72508,-52.10732 c -0.38247,-9.43784 -0.47065,-9.65745 -3.72508,-9.27757 -5.62492,0.65657 -18.36576,5.73509 -20.61032,8.21531 -1.82873,2.02073 -1.8598,2.56553 -0.22372,3.92336 3.03704,2.52052 15.768,6.705 20.55912,6.75746 l 4.39175,0.0481 -0.39175,-9.66667 z m 28.91289,5.18464 c 6.18671,-2.83236 7.39156,-3.87582 6.17202,-5.34528 -1.9213,-2.31501 -15.43806,-8.26869 -21.14332,-9.3129 l -4.33334,-0.79312 v 10.14006 10.14007 l 5.80864,-0.65471 c 3.19475,-0.36009 9.26795,-2.23845 13.496,-4.17412 z m -57.01761,-15.5658 c 6.35861,-4.03449 21.00824,-9.2855 25.90533,-9.2855 2.38154,0 2.54875,-0.88962 2.19288,-11.66667 l -0.38524,-11.66666 -27.03235,-0.36104 -27.03236,-0.36106 0.83273,3.69439 c 2.53569,11.24945 3.75065,14.88065 6.66195,19.91073 3.86304,6.67452 9.69578,13.78364 11.30893,13.78364 0.64267,0 4.03933,-1.82152 7.54813,-4.04783 z m 27.71297,-54.50191 v -11.21642 l -8.17525,-1.6676 c -8.81864,-1.79884 -14.71357,-4.38524 -21.40245,-9.3903 -2.3344,-1.74676 -4.78363,-3.17594 -5.44271,-3.17594 -0.65909,0 -3.66905,3.33487 -6.68882,7.41083 -5.42326,7.32008 -9.79258,17.13328 -11.40583,25.61669 l -0.82928,4.36086 26.97217,-0.36086 26.97217,-0.36085 z m 0.66667,-31.45026 c 0,-8.92578 -0.27137,-10 -2.52621,-10 -3.9293,0 -19.21026,5.0155 -22.15943,7.27314 -2.6139,2.00098 -2.60516,2.06069 0.68564,4.67861 3.75237,2.98512 16.43688,7.78288 21,7.94299 2.8538,0.10013 3,-0.38207 3,-9.89474 z m 27.63395,4.61816 c 4.60133,-2.26522 8.36605,-4.61492 8.36605,-5.22154 0,-2.28336 -18.36641,-9.37016 -24.33333,-9.38918 -2.01903,-0.007 -2.33334,1.36312 -2.33334,10.16702 v 10.17445 l 4.96728,-0.80607 c 2.732,-0.44334 8.732,-2.65945 13.33334,-4.92468 z m -648.967265,142.404 c -6.579764,-3.45465 -5.954636,-5.84307 25.411265,-97.08793 16.24719,-47.26383 30.14483,-87.77973 30.88364,-90.03535 3.41928,-10.43909 8.27604,-12.48713 29.70509,-12.5263 19.40676,-0.0355 22.85092,1.22021 26.66728,9.72248 6.15389,13.70997 61.99939,178.42733 61.99939,182.86841 0,7.22958 -3.38183,8.70357 -19.96335,8.70113 -21.42563,-0.003 -21.93709,-0.39569 -29.36999,-22.53996 -4.56297,-13.59411 -6.77898,-18.38423 -9.2525,-20 -2.60835,-1.70385 -8.15377,-2.21261 -28,-2.5688 -27.82664,-0.49943 -33.69342,0.48947 -36.55727,6.16203 -1.00392,1.9885 -4.03408,10.2966 -6.73368,18.46242 -2.7299,8.2575 -6.12758,15.9505 -7.65541,17.33334 -2.28742,2.07036 -5.34498,2.55098 -18.274087,2.87253 -10.895436,0.27096 -16.521356,-0.13591 -18.860378,-1.364 z m 91.763075,-82.42095 c 2.70071,-2.51608 3.16575,-2.5688 5.88143,-0.66666 1.62187,1.136 4.37461,2.06545 6.11723,2.06545 3.51681,0 10.90493,-7.0334 10.90493,-10.38138 0,-2.87971 -10.49605,-18.76682 -13.4392,-20.34195 -1.31203,-0.70216 -8.72493,-1.27667 -16.47315,-1.27667 -15.73565,0 -15.56892,-0.0792 -23.21566,11.03492 -5.17586,7.52284 -5.4726,13.15235 -0.93259,17.69235 3.79335,3.79336 8.17321,4.1791 12.56037,1.10622 2.90772,-2.03664 3.26296,-1.99668 5.92631,0.66667 3.584,3.58399 8.88645,3.62628 12.67033,0.10107 z m 10.23692,-37.93454 c 0,-2.49636 -1.01474,-2.69079 -15.88909,-3.04424 -16.06461,-0.38175 -19.16335,0.37844 -17.64731,4.3292 0.69894,1.82137 3.1938,2.07647 17.17706,1.75629 15.3456,-0.35137 16.35934,-0.53984 16.35934,-3.04125 z m -1.45186,-8.13901 c 1.5182,-0.58259 1.85918,-1.78247 1.23146,-4.33334 -3.94866,-16.04604 -24.53044,-18.56513 -31.13612,-3.81088 -3.63318,8.11498 -2.31992,8.9499 14.0774,8.9499 7.55023,0 14.6725,-0.36256 15.82726,-0.80568 z m 276.78519,128.98103 c -7.25431,-2.07792 -7.29403,-2.50338 -7.79634,-83.50869 -0.53552,-86.36408 0.21418,-108.57332 3.81523,-113.02245 l 2.40996,-2.97755 59.40452,-0.39757 c 64.28394,-0.43024 69.3148,-0.0165 71.55849,5.88485 1.47389,3.87663 1.48041,20.9399 0.009,25.84606 -0.87388,2.91553 -1.12688,2.5395 -2.01848,-3 -0.56066,-3.48334 -0.60516,-9.09559 -0.0989,-12.47168 0.7902,-5.26947 0.49564,-6.59062 -2.08103,-9.33334 l -3.00093,-3.19498 h -60.28653 c -56.0656,0 -60.49404,0.16802 -63.25021,2.39984 -2.9492,2.38812 -2.96258,2.58837 -2.73596,41 0.74742,126.69102 1.26257,147.85573 3.64125,149.60015 3.55697,2.60855 124.25836,2.39451 127.84145,-0.2267 2.34876,-1.71823 2.55433,-3.35242 2.22241,-17.66667 -0.30557,-13.17761 -0.0867,-15.33447 1.33008,-13.10663 1.86334,2.93003 2.35971,22.99275 0.71386,28.85294 -0.54367,1.93577 -2.04367,4.03301 -3.33334,4.66052 -2.84886,1.38616 -123.64153,2.00912 -128.34483,0.6619 z m 12,-8.84202 c 0,-6.32244 -4.21892,-10.55622 -9.47223,-9.50556 l -3.86111,0.77222 v -37.83469 -37.8347 l 4.82146,0.13668 c 5.52746,0.15668 8.51188,-2.82084 8.51188,-8.49219 0,-4.61436 -3.08452,-7.10843 -8.79127,-7.10843 h -4.54207 v -35.75873 -35.75873 l 3.05771,0.76742 c 2.02313,0.50778 4.32644,-0.23054 6.80745,-2.1821 3.15503,-2.48175 3.63498,-3.65676 3.02612,-7.4087 l -0.72362,-4.45916 h 50.68878 50.68877 l -0.87038,3.96283 c -1.15479,5.25776 4.43525,11.38361 9.27864,10.168 3.04568,-0.76443 3.16776,-0.49279 3.59957,8.00879 0.24583,4.84002 0.14696,9.27208 -0.21971,9.84902 -0.36666,0.57694 -17.7998,1.26992 -38.74027,1.53999 -43.54292,0.56153 -44.28078,0.73111 -45.94098,10.55773 -1.36505,8.07963 0.44904,21.99755 3.33167,25.56112 2.39221,2.95728 3.13064,3.03286 36.01493,3.68586 l 33.57265,0.66666 2.69243,3.32648 c 2.37263,2.93138 2.62824,4.79396 2.15207,15.68132 -0.41268,9.43548 -1.08748,12.90271 -2.85582,14.67351 -2.03712,2.03996 -6.31308,2.39884 -35.56989,2.98536 -41.17328,0.82541 -39.32928,-0.0989 -39.31242,19.70678 0.0133,15.3523 0.99522,19.64568 5.00472,21.87706 2.13002,1.18541 14.33862,1.8102 42.65092,2.1827 l 39.66666,0.5219 v 10.52244 10.52245 h -4.63593 c -5.68558,0 -9.29698,4.48019 -7.94703,9.85881 l 0.87205,3.47452 H 515.47787 463.99999 Z M 297.4513,452.10111 c -1.37743,-0.87195 1.39261,-2.836 10.33148,-7.32536 10.39854,-5.22247 12.5983,-5.8937 14.80289,-4.51691 2.34515,1.46457 1.57812,2.15741 -8.13227,7.34579 -10.96867,5.86069 -13.70419,6.58414 -17.0021,4.49648 z m -13.49839,-4.13023 c -2.97997,-1.84172 0.77463,-4.97323 13.81546,-11.52272 8.69974,-4.36927 12.81742,-5.75625 15.26529,-5.14187 4.32361,1.08516 3.67133,1.59982 -13.16649,10.38867 -9.13128,4.76625 -14.76327,6.98728 -15.91426,6.27592 z"
         style="fill:#333333;fill-opacity:1;stroke-width:1.33333" />
      <path
         id="path132"
         d="m 327.35154,515.88844 c -19.02299,-2.05691 -39.02573,-7.74083 -54.68488,-15.53911 -9.16335,-4.56336 -11.33333,-6.76464 -11.33333,-11.49677 0,-4.43904 9.00614,-24.85257 10.96458,-24.85257 0.6659,0 2.48318,0.681 4.0384,1.51332 2.4254,1.29804 3.24047,0.99562 5.7294,-2.1258 l 2.90174,-3.63912 7.18294,2.12125 c 3.95062,1.16669 11.08294,3.21928 15.8496,4.56132 8.1076,2.28265 8.64177,2.67083 8.28083,6.01757 -0.30807,2.85634 0.36144,3.86164 3.32113,4.98692 3.25873,1.23896 4.03696,0.99555 6.43593,-2.01304 3.54296,-4.44329 4.62878,-4.31881 4.62878,0.53067 0,6.86027 7.50437,8.56584 10.28366,2.33723 1.07263,-2.40387 2.21911,-2.82026 6.84554,-2.48623 6.585,0.47545 13.59082,-3.26765 15.996,-8.54641 2.67929,-5.8804 -0.39032,-9.79698 -12.99227,-16.57711 -8.13235,-4.37537 -16.27104,-10.64567 -29.87157,-23.01391 -10.28159,-9.34999 -19.45045,-16.99999 -20.37527,-16.99999 -0.92482,0 -3.55796,1.57893 -5.85141,3.50876 l -4.16992,3.50874 3.06763,3.36754 3.06761,3.36752 -5.86599,-3.20962 c -8.30148,-4.54221 -17.15812,-13.55245 -20.56026,-20.91685 -2.49656,-5.40413 -2.90708,-8.64632 -2.90708,-22.95943 0,-15.98617 0.17429,-17.0346 4.2686,-25.67804 8.14869,-17.20254 23.95721,-29.46974 45.01153,-34.92832 12.61388,-3.2703 36.29924,-2.75762 51.5489,1.11579 23.85342,6.05877 39.83763,14.77133 39.83763,21.71441 0,3.742 -12.33049,25.93123 -15.60056,28.07387 -3.08151,2.01908 -4.00481,1.81616 -18.81996,-4.13593 -27.87039,-11.19714 -51.94084,-10.67147 -57.37397,1.253 -3.68928,8.09708 -0.33975,15.77753 8.92053,20.45468 2.68068,1.35396 14.77396,5.592 26.87396,9.41786 46.84533,14.81195 60.22753,25.46227 64.21417,51.10533 3.242,20.85338 -3.02393,41.63844 -15.99425,53.05538 -15.61467,13.74457 -43.47515,20.28529 -72.86837,17.10709 z M 74.666665,514.28301 c -2.439966,-1.22804 -3.439394,-2.92818 -3.729063,-6.34356 -0.282492,-3.33076 8.0589,-29.26601 29.150688,-90.63601 16.25052,-47.28356 30.18891,-87.95153 30.97419,-90.37325 2.57652,-7.94575 6.24658,-10.57256 16.27142,-11.64613 11.95778,-1.28058 31.3999,-0.0975 34.9628,2.12765 1.56577,0.97784 3.56429,3.31023 4.44116,5.18308 0.87688,1.87287 15.34839,43.27952 32.15891,92.0148 21.97597,63.71038 30.45293,89.92836 30.16724,93.30268 -0.59455,7.02224 -4.09034,8.27482 -21.79059,7.80788 -20.36809,-0.53732 -20.41912,-0.5792 -27.27343,-22.38683 -4.42316,-14.07268 -6.12281,-17.78972 -8.99672,-19.67527 -2.97589,-1.95246 -7.50338,-2.39585 -28.27329,-2.76889 -26.73309,-0.48015 -33.59282,0.55707 -36.31665,5.49116 -0.8966,1.62415 -4.05639,10.153 -7.02176,18.953 -4.99774,14.83127 -5.73245,16.17029 -10.05824,18.33127 -5.72701,2.86096 -29.372887,3.28278 -34.666665,0.61842 z m 92.044465,-82.32749 c 2.48716,-2.48716 2.95225,-2.54223 5.63,-0.66667 1.60539,1.12446 4.33153,2.04447 6.05811,2.04447 4.0583,0 10.94749,-6.89525 10.88785,-10.89744 -0.0255,-1.7064 -3.0362,-7.15256 -6.6906,-12.10256 l -6.64436,-9 h -15.96077 -15.96078 l -6.01529,8.26678 c -7.36257,10.11833 -8.12923,16.54352 -2.50215,20.96978 4.18228,3.28979 8.15059,3.51728 12.17568,0.69799 2.71568,-1.90214 3.18072,-1.84942 5.88143,0.66666 3.74503,3.48903 9.66339,3.49848 13.14088,0.0209 z m 9.95553,-37.95553 c 0,-2.49636 -1.01474,-2.69079 -15.88909,-3.04424 -16.06461,-0.38175 -19.16335,0.37844 -17.64731,4.3292 0.69894,1.82137 3.1938,2.07647 17.17706,1.75629 15.3456,-0.35137 16.35934,-0.53984 16.35934,-3.04125 z m 0.1248,-9.17769 c 1.25171,-3.26188 -3.16464,-11.3495 -7.7112,-14.12147 -10.27376,-6.26373 -22.60198,-1.06029 -25.5117,10.76788 -0.46932,1.9078 -0.46424,3.8578 0.0107,4.33333 0.47554,0.47554 7.98344,0.86462 16.68423,0.86462 12.23856,0 15.97984,-0.41751 16.52737,-1.84436 z m 275.20853,130.01971 c -7.11982,-2.0394 -7.21206,-2.98278 -7.77344,-79.50869 -0.6215,-84.71725 0.28626,-112.6906 3.79765,-117.02916 l 2.40444,-2.97084 56.45235,-0.42982 c 31.04878,-0.2364 59.53523,-0.0516 63.30322,0.41065 10.55867,1.29533 11.70545,2.68921 12.25913,14.90052 0.26064,5.7486 -0.1284,12.55199 -0.86448,15.11865 -1.26424,4.40815 -1.35252,4.18656 -1.59372,-4 -0.14044,-4.76666 -0.15222,-10.57434 -0.0263,-12.90594 0.14814,-2.7408 -0.7467,-5.21512 -2.53158,-7 -2.7117,-2.71178 -3.84426,-2.76072 -63.88733,-2.76072 -58.55856,0 -61.2239,0.10746 -63.44064,2.55689 -2.15058,2.37636 -2.28574,8.04797 -1.9144,80.33333 0.21975,42.77704 0.41804,84.43043 0.44064,92.56309 0.0292,10.518 0.56935,15.4256 1.871,17 1.65747,2.00475 7.72082,2.21335 64.33334,2.21335 59.45697,0 62.62593,-0.12253 65.01702,-2.51361 2.24524,-2.24524 2.45071,-4.1314 1.92455,-17.66667 -0.49776,-12.80444 -0.31906,-14.73973 1.15305,-12.48639 1.14357,1.75048 1.72428,7.13822 1.69017,15.68158 -0.0465,11.65968 -0.36264,13.32573 -3.03577,16 l -2.98384,2.98509 -61.63088,0.23175 c -33.89698,0.12745 -63.13089,-0.19792 -64.96422,-0.72306 z m 219.57195,-1.62461 c -46.36689,-13.22063 -78.38648,-63.76915 -71.60438,-113.04004 4.70474,-34.1793 25.11284,-62.55557 55.41266,-77.04812 25.50152,-12.19748 65.65555,-11.73085 88.52209,1.02871 17.0478,9.51269 30.76434,23.11968 30.76434,30.51863 0,2.15984 -1.45231,5.07874 -3.59111,7.21756 -3.99949,3.99948 -22.63731,16.77252 -24.47368,16.77252 -0.64609,0 -1.81695,-1.2 -2.60188,-2.66667 -1.91191,-3.57244 -3.13489,-3.38999 -10.29417,1.53573 -6.30592,4.33859 -19.51002,9.13094 -25.15795,9.13094 -3.15905,0 -3.21455,0.20714 -3.21455,12 v 12 h 26.66667 26.66667 v 4.66666 4.66667 h -26.66667 -26.66667 v 11.72188 11.72188 l 9.48938,2.22702 c 5.80309,1.36191 12.74972,4.27126 17.88228,7.48936 l 8.3929,5.26234 3.02844,-3.22363 c 3.6918,-3.92973 4.76516,-3.65325 19.41916,5.0022 15.25816,9.01231 16.87956,12.82481 9.81876,23.08733 -8.53937,12.41156 -31.76068,26.16583 -51.62746,30.57958 -13.66659,3.03628 -38.35754,2.71608 -50.16483,-0.65055 z m 24.42804,-49.99003 v -10.10593 l -4.33333,0.93464 c -6.25175,1.34843 -17.23883,5.67665 -20.27268,7.98616 -2.32783,1.77207 -2.3904,2.19944 -0.58615,4.00368 3.0414,3.0414 14.53644,7.15449 20.19216,7.22504 l 5,0.0624 z m 25.61397,7.32867 c 9.83256,-3.87564 10.99242,-5.00936 8.23831,-8.05263 -2.27389,-2.51261 -12.48801,-6.78705 -20.18561,-8.44733 l -4.33334,-0.93464 v 10.10593 10.10595 h 4.61731 c 2.53952,0 7.78801,-1.24977 11.66333,-2.77728 z M 678.54122,447.9468 c 3.36899,-1.26812 8.67543,-2.72767 11.79209,-3.24344 l 5.66667,-0.93777 v -11.8828 -11.8828 h -27.3 -27.3 l 0.75694,4.33333 c 2.0788,11.90069 6.43394,21.36135 13.36552,29.03375 l 4.74028,5.24693 6.07653,-4.18077 c 3.34209,-2.29942 8.83298,-5.21831 12.20197,-6.48643 z m 17.17733,-48.89 -0.38524,-11.60985 -8.4895,-1.71497 c -7.32264,-1.47927 -15.05388,-5.07358 -24.61256,-11.4426 -2.09793,-1.39787 -2.98987,-0.97608 -6.43691,3.04394 -4.95436,5.77791 -11.15353,17.78103 -12.3951,24 -0.51242,2.56667 -1.22731,5.71667 -1.58864,7 -0.61043,2.16799 1.28997,2.33334 26.81812,2.33334 h 27.47509 z m 0.28143,-31.9047 v -10.18124 l -6.22521,0.85326 c -7.10139,0.97335 -20.44145,6.67578 -20.44145,8.73803 0,3.08113 16.64447,10.62576 23.66666,10.72764 2.85299,0.0413 3,-0.45537 3,-10.13769 z m 25.94336,6.27137 c 2.96448,-1.35108 6.58997,-3.38697 8.05664,-4.52421 l 2.66667,-2.06772 -2.66667,-2.0665 c -2.98316,-2.31174 -18.23649,-7.43172 -22.14045,-7.43172 -2.25862,0 -2.52622,1.07736 -2.52622,10.17042 v 10.17041 l 5.61003,-0.89708 c 3.08551,-0.4934 8.03551,-2.00251 11,-3.3536 z M 463.99999,505.57421 c 0,-4.3708 -0.67303,-5.95373 -3.24902,-7.64158 -1.78696,-1.17086 -4.63696,-1.9347 -6.33333,-1.6974 l -3.08432,0.43142 -0.35415,-37.69729 -0.35414,-37.69729 3.36385,0.84428 c 2.11797,0.53157 4.59485,0.0377 6.68749,-1.33345 7.4377,-4.87336 1.98012,-17.0747 -6.66666,-14.90448 l -3.34306,0.83904 v -35.79448 -35.79447 l 3.86804,0.56771 c 5.32326,0.78128 9.9428,-3.83827 9.16152,-9.16152 l -0.5677,-3.86804 h 50.25084 50.25085 l -0.622,3.25372 c -0.88827,4.64668 5.23888,10.64133 9.72554,9.51525 3.24684,-0.81491 3.26624,-0.76088 3.26624,9.09861 v 9.91839 l -38.39491,0.44035 c -43.91767,0.50368 -44.61995,0.6634 -46.28634,10.5267 -1.36505,8.07966 0.44904,21.99755 3.33168,25.56112 2.38624,2.94991 3.18706,3.03494 34.89594,3.70564 32.91225,0.69615 37.16139,1.35618 38.96343,6.05223 1.37199,3.57535 0.92279,19.91201 -0.67342,24.49089 -0.86768,2.48903 -2.86591,4.81465 -4.75347,5.53231 -1.79108,0.68096 -16.3279,1.23812 -32.30408,1.23812 -17.36062,0 -30.70953,0.57936 -33.17832,1.43998 -5.79046,2.01858 -7.49784,7.94727 -6.54116,22.71366 0.80106,12.36436 2.05842,16.18844 5.90362,17.95489 1.3037,0.59891 20.07037,1.41949 41.7037,1.82353 l 39.33333,0.7346 0.38784,10.24571 0.38784,10.24571 -4.27289,-0.12147 c -5.16681,-0.14691 -9.67832,4.59433 -8.79059,9.23821 0.57836,3.0255 0.43906,3.05866 -12.89709,3.06936 -7.41497,0.005 -30.43177,0.40052 -51.14844,0.87683 l -37.66666,0.866 v -5.51276 z M 298.00235,452.10605 c -2.2005,-0.85881 -0.73405,-2.00302 8.42415,-6.57294 6.09865,-3.04322 12.21217,-5.53312 13.58561,-5.53312 5.83011,0 3.39928,2.93284 -6.59617,7.95846 -11.42029,5.74202 -11.36587,5.72736 -15.41359,4.1476 z m -15.33569,-5.23274 c 0,-1.97171 4.35413,-4.90152 16.13016,-10.8537 10.41336,-5.2634 15.86984,-6.30593 15.86984,-3.0321 0,1.34578 -27.32524,15.01248 -30.01603,15.01248 -1.09118,0 -1.98397,-0.50702 -1.98397,-1.12668 z"
         style="fill:#333333;fill-opacity:1;stroke-width:1.33333" />
      <path
         id="path130"
         d="m 76.666665,515.03517 c -5.03888,-1.23857 -6.31568,-3.31134 -5.654284,-9.17922 0.678226,-6.01722 58.316269,-175.25212 62.496899,-183.50129 3.25465,-6.42206 5.64594,-7.02134 28.01741,-7.02134 20.35275,0 22.2092,0.7097 26.15845,10 1.09108,2.56667 15.42932,43.66667 31.86276,91.33334 21.12677,61.2801 29.76764,88.02465 29.49887,91.30267 -0.27814,3.39235 -1.27431,5.08606 -3.71344,6.31368 -4.07126,2.04906 -25.33992,2.25571 -32.3312,0.31412 -6.04876,-1.67982 -7.58207,-4.33881 -13.76918,-23.87785 -2.65348,-8.37979 -5.6833,-15.31687 -7.34753,-16.82299 -2.61148,-2.36334 -5.09496,-2.56297 -31.88542,-2.56297 -34.86027,0 -32.85523,-0.95777 -38.87924,18.57195 -5.95627,19.31006 -8.07242,23.01158 -14.11509,24.6897 -4.99593,1.38744 -25.287604,1.68186 -30.339005,0.4402 z m 90.713945,-83.0796 c 2.56533,-2.41 3.07424,-2.48404 4.58252,-0.66666 0.9332,1.12442 3.611,2.04441 5.95067,2.04441 5.16646,0 11.42927,-5.90033 11.39941,-10.73962 -0.0107,-1.7932 -3.008,-7.31038 -6.65985,-12.26038 l -6.63974,-9 H 160.0221 144.03058 l -6.01529,8.26678 c -6.97041,9.57938 -7.87614,15.58057 -3.11621,20.64729 3.45657,3.67934 9.79298,4.07957 13.36785,0.84436 2.33344,-2.11174 2.59492,-2.07311 4.51393,0.66666 2.70644,3.86399 10.58336,3.97036 14.59975,0.19716 z m 9.95272,-37.95558 v -3.33333 H 160 142.66666 v 3.33333 3.33333 H 160 177.33333 Z m -0.65056,-8.69273 c 1.52091,-2.46087 -2.11641,-10.48795 -6.37684,-14.07287 -3.64779,-3.0694 -5.08721,-3.44453 -11.25459,-2.93309 -4.99656,0.41436 -8.03568,1.49192 -10.35624,3.67197 -3.57597,3.35945 -6.72185,11.1594 -5.37788,13.33399 0.49458,0.80022 7.35675,1.3594 16.68278,1.3594 9.32602,0 16.1882,-0.55918 16.68277,-1.3594 z m 135.03057,128.0549 c -14.75637,-3.11152 -22.98892,-5.82909 -36.58977,-12.07829 -15.63359,-7.18319 -16.75688,-10.50212 -9.01906,-26.64824 2.62415,-5.47568 4.94094,-10.12555 5.14842,-10.33302 0.20748,-0.20748 2.10496,0.27964 4.21661,1.0825 3.42351,1.30161 4.13788,1.0854 6.59499,-1.99612 2.7452,-3.4428 2.78049,-3.44816 9.34553,-1.4195 3.62447,1.12 10.78993,3.14868 15.92326,4.50819 8.72691,2.31121 9.30626,2.69492 8.91658,5.90551 -0.75711,6.2379 8.22829,8.70622 10.44726,2.8699 1.44558,-3.80217 4.52592,-3.10672 3.30319,0.74576 -0.51309,1.6166 0.24432,3.15492 2.24244,4.55446 4.21549,2.95265 6.23924,2.64402 7.9998,-1.21999 1.30588,-2.86608 2.39564,-3.33333 7.77424,-3.33333 11.99083,0 20.50043,-9.69318 15.04555,-17.13818 -1.42191,-1.94066 -4.34263,-4.43257 -6.4905,-5.53757 -13.9935,-7.19908 -21.54104,-12.60577 -34.54229,-24.74448 -8.08295,-7.5467 -16.24928,-14.93169 -18.14741,-16.41109 l -3.45113,-2.68983 -4.96179,4.08992 -4.96179,4.08992 3.0796,3.38014 3.07959,3.38014 -6,-3.49474 c -8.51099,-4.95728 -16.46159,-13.07144 -20.11012,-20.52386 -2.77264,-5.66332 -3.13864,-8.32762 -3.17835,-23.13618 -0.0448,-16.69743 -0.0333,-16.75908 4.96738,-26.8774 8.28541,-16.76439 23.40373,-28.1802 44.51354,-33.61208 10.87149,-2.7974 34.97933,-2.77424 47.54433,0.0457 15.19654,3.41049 33.98402,11.09539 39.23707,16.04965 5.62937,5.30918 5.4336,6.88423 -2.79219,22.46331 -7.93265,15.02393 -9.37589,15.53179 -25.13324,8.84393 -16.61298,-7.05106 -22.4581,-8.48938 -35.04842,-8.62448 -17.71104,-0.19005 -26,4.62832 -26,15.11382 0,10.45261 6.31325,14.49698 37.83024,24.2347 45.69857,14.11935 59.85372,25.41779 63.62677,50.78595 5.21101,35.03642 -12.48245,60.31302 -47.72023,68.1723 -13.31638,2.97003 -41.41496,2.72347 -56.6901,-0.49745 z m 140.5673,1.16997 c -2.77289,-0.82336 -4.85704,-2.54121 -5.66667,-4.67072 -0.77401,-2.03578 -1.28065,-39.99432 -1.28065,-95.94822 0,-106.62925 -1.32333,-97.00177 13.54781,-98.56261 11.35158,-1.19143 115.88024,-0.2341 118.60492,1.08625 3.54356,1.71717 5.18981,7.16636 5.02285,16.62589 -0.27516,15.58823 -2.17626,18.39988 -2.35117,3.47726 -0.13147,-11.21764 -0.56396,-13.82764 -2.59607,-15.66667 -2.19446,-1.98597 -8.5696,-2.20665 -63.74515,-2.20665 -47.83999,0 -61.82168,0.37645 -63.65059,1.71378 -2.19823,1.60739 -2.34065,7.49682 -2.29384,94.85192 0.0457,85.4038 0.23639,93.34419 2.29556,95.61955 2.12933,2.35288 5.50472,2.48141 65.16568,2.48141 60.08254,0 63.02324,-0.114 65.20849,-2.52872 1.99007,-2.199 2.17535,-4.4156 1.421,-17 -0.72396,-12.07729 -0.57207,-14.18441 0.91819,-12.73717 1.26046,1.22408 1.77685,5.63368 1.75574,14.99286 -0.0269,11.9575 -0.3249,13.55391 -3.0357,16.2659 l -3.0058,3.00713 -60.96429,0.25059 c -36.58384,0.15037 -62.71832,-0.27024 -65.35031,-1.05178 z m 221.71934,-0.68606 c -23.3772,-5.64487 -47.15106,-24.36807 -60.4397,-47.5995 -24.00864,-41.97234 -17.58074,-91.81534 16.08754,-124.7453 20.84143,-20.3844 41.37043,-27.7154 74.16456,-26.48448 20.22296,0.75907 28.4972,2.86811 42.66099,10.87396 15.28166,8.63771 28.19328,22.10636 28.19328,29.40961 0,3.96762 -9.20932,12.19502 -23.02103,20.56647 l -5.02103,3.04331 -2.55169,-3.12174 c -2.51087,-3.07178 -2.61188,-3.08322 -6.31231,-0.71497 -8.19238,5.24307 -20.0802,10.29832 -26.09394,11.09635 l -6.33334,0.84042 v 11.82823 11.82823 h 26.75115 26.75115 l -0.41782,4.33333 -0.41781,4.33333 -26.33333,0.36152 -26.33334,0.36152 v 11.94641 11.94642 l 3.66667,0.74004 c 10.03952,2.02628 18.97707,5.38874 24.99475,9.40349 l 6.66141,4.4442 3.52047,-3.37283 3.52048,-3.37282 5.81812,2.96473 c 12.67364,6.45811 22.50078,13.51023 23.30794,16.72617 1.22514,4.88134 -1.89992,10.87975 -9.58897,18.40571 -11.73265,11.48379 -28.98648,20.36163 -46.98633,24.17648 -11.34674,2.4048 -35.86406,2.28908 -46.24787,-0.21829 z m 22,-50.66114 v -10.14838 l -5,0.89545 c -7.62828,1.36617 -21.66666,8.27604 -21.66666,10.6646 0,1.13853 0.15,2.07283 0.33333,2.07623 0.18333,0.004 3.93333,1.48916 8.33333,3.30169 4.4,1.81252 10.25,3.30975 13,3.32715 l 5,0.0317 z m 25.82851,7.43138 c 9.12254,-3.41319 11.01169,-5.44266 7.78473,-8.363 -3.1932,-2.88982 -13.12399,-7.16314 -19.27991,-8.29635 l -5,-0.92041 v 10.14838 10.14839 h 4.61666 c 2.53916,0 7.88449,-1.22265 11.87852,-2.71701 z m -42.41896,-22.75574 c 3.95477,-1.38998 8.35641,-2.52725 9.78142,-2.52725 6.30678,0 6.80903,-0.99401 6.80903,-13.47599 v -11.85734 h -27.33333 c -15.03333,0 -27.33333,0.27047 -27.33333,0.60104 0,0.33057 0.67462,3.78057 1.49917,7.66666 1.91987,9.0484 6.65711,18.42176 12.67891,25.08718 l 4.75132,5.25913 5.97816,-4.11308 c 3.28798,-2.2622 9.21387,-5.25035 13.16865,-6.64035 z m 16.59045,-49.19391 c 0,-11.79286 -0.0555,-12 -3.21455,-12 -5.64793,0 -18.85202,-4.79235 -25.15794,-9.13094 -3.35939,-2.31132 -6.69945,-4.2024 -7.42237,-4.2024 -1.58839,0 -8.23007,8.23119 -11.83442,14.66667 -2.83657,5.06464 -5.0227,11.51468 -6.21378,18.33333 l -0.75694,4.33334 h 27.3 27.3 z m 0,-31.51456 v -10.18124 l -6.22521,0.85326 c -8.02182,1.09951 -20.85592,6.93247 -20.11881,9.14379 1.18162,3.54487 15.81865,10.19741 22.67735,10.30689 l 3.66667,0.0585 z m 27.72639,5.29305 c 4.1261,-2.07817 7.72861,-4.53743 8.00554,-5.46503 0.66512,-2.22777 -12.18838,-8.06153 -20.17338,-9.156 l -6.22522,-0.85326 v 10.3568 10.35678 l 5.44552,-0.7304 c 2.99503,-0.40172 8.82143,-2.43072 12.94754,-4.50889 z M 464.44443,505.35053 c 0,-5.11453 -3.85191,-9.35054 -8.50267,-9.35054 h -3.64492 l -0.93181,-29.66667 c -0.51251,-16.31667 -0.7293,-32.96667 -0.48176,-37 0.43628,-7.109 0.56128,-7.32034 4.08593,-6.90861 2.49629,0.2916 4.69031,-0.62969 7,-2.9394 4.25291,-4.25289 4.23996,-6.73069 -0.0576,-11.02825 -2.67376,-2.67376 -4.27676,-3.25071 -7.33333,-2.63939 l -3.91162,0.78232 v -35.3 -35.3 h 3.70332 c 5.86247,0 9.63002,-3.42023 9.63002,-8.74227 v -4.59106 h 49.76908 49.76906 l -0.56771,3.86804 c -0.78128,5.32325 3.83827,9.9428 9.16152,9.16152 l 3.86804,-0.56771 v 9.67875 9.67876 l -39.2983,0.42365 c -38.08027,0.41052 -39.38659,0.51201 -42.14695,3.27431 -5.569,5.57292 -5.01949,27.47248 0.83628,33.32824 3.11062,3.11062 3.53959,3.15524 30.88171,3.2125 30.06077,0.0629 38.61813,1.04286 41.31492,4.73091 2.11896,2.89785 2.34769,19.75284 0.34597,25.49495 -2.25311,6.46327 -5.34039,7.04941 -37.13073,7.04941 -17.12359,0 -30.7456,0.58354 -33.14468,1.41986 -5.89884,2.05635 -7.41171,6.91275 -6.76436,21.71396 0.65629,15.00555 2.53627,18.75986 10.01263,19.9952 2.80144,0.4629 21.05804,0.84823 40.57024,0.8563 l 35.47673,0.0147 0.8566,8.19559 c 1.35136,12.92912 1.28628,13.29639 -2.2011,12.42112 -4.7683,-1.19677 -10.67136,4.08255 -9.96282,8.91011 l 0.55868,3.80652 h -50.88019 -50.88018 v -3.98279 z M 298.92582,452.20041 c -2.61039,-0.73628 -1.35019,-1.72201 8.35292,-6.53376 11.5018,-5.7037 14.65118,-6.60408 15.91985,-4.55134 0.55052,0.89076 -19.61137,12.5723 -20.85841,12.0851 -0.18711,-0.0731 -1.72357,-0.52309 -3.41436,-1 z m -15.95528,-5.86709 c 0.67843,-2.1492 26.42881,-15.82115 28.91896,-15.35427 4.7645,0.89331 1.74849,3.59124 -11.23048,10.04612 -14.11429,7.01951 -18.65921,8.3834 -17.68848,5.30815 z"
         style="fill:#EEEEEE;fill-opacity:1;stroke-width:1.33333" />
    </g>
  </g>
</svg>
